<svg width="50" height="40" viewBox="0 0 50 40" fill="none" xmlns="http://www.w3.org/2000/svg">
<mask id="path-1-outside-1_5070_65089" maskUnits="userSpaceOnUse" x="-0.947266" y="8.86572" width="50" height="25" fill="black">
<rect fill="white" x="-0.947266" y="8.86572" width="50" height="25"/>
<path d="M10.7481 28.0828C10.0728 28.0828 9.51805 27.8416 9.08393 27.3593C8.66589 26.8769 8.46491 26.2016 8.48099 25.3334L8.50511 22.6563C8.52119 21.7881 8.47295 21.1288 8.3604 20.6786C8.24785 20.2284 8.03883 19.923 7.73334 19.7622C7.42785 19.6014 6.97765 19.521 6.38275 19.521C6.02902 19.521 5.76373 19.5853 5.58686 19.7139C5.42608 19.8426 5.31353 20.0435 5.24922 20.3169L3.85039 26.1775C3.77 26.5151 3.77804 26.7483 3.87451 26.8769C3.97098 27.0055 4.22019 27.102 4.62216 27.1663L5.68334 27.311C5.90843 27.3271 6.02098 27.4155 6.02098 27.5763C6.02098 27.7693 5.89236 27.8657 5.6351 27.8657H0.522145C0.297046 27.8657 0.184497 27.7853 0.184497 27.6245C0.184497 27.4477 0.345281 27.3351 0.666851 27.2869L1.14921 27.2145C1.50293 27.1663 1.74411 27.0859 1.87274 26.9734C2.01744 26.8447 2.12195 26.6116 2.18627 26.274L5.46628 12.0927C5.54667 11.7551 5.54667 11.53 5.46628 11.4174C5.38588 11.3049 5.1849 11.2165 4.86333 11.1521L4.38098 11.0557C4.17196 11.0074 4.06745 10.919 4.06745 10.7904C4.06745 10.5974 4.21215 10.501 4.50157 10.501H9.39746C10.3461 10.501 11.1339 10.6698 11.761 11.0074C12.3881 11.3451 12.8543 11.7953 13.1598 12.358C13.4814 12.9208 13.6422 13.5398 13.6422 14.2151C13.6422 15.0673 13.4251 15.839 12.991 16.5304C12.5569 17.2218 11.9861 17.8086 11.2786 18.291C10.5873 18.7573 9.83962 19.103 9.0357 19.3281C8.93923 19.3441 8.88295 19.3924 8.86687 19.4728C8.86687 19.5371 8.91511 19.5933 9.01158 19.6416C9.46178 19.8828 9.76727 20.2204 9.92805 20.6545C10.0888 21.0886 10.1692 21.6675 10.1692 22.391V24.851C10.1692 25.7353 10.2657 26.3463 10.4586 26.684C10.6516 27.0055 10.9169 27.1663 11.2545 27.1663C11.3832 27.1663 11.4957 27.1502 11.5922 27.1181C11.6886 27.0698 11.8173 26.9894 11.9781 26.8769C12.1067 26.7643 12.2192 26.7322 12.3157 26.7804C12.4283 26.8287 12.4845 26.9171 12.4845 27.0457C12.4845 27.2708 12.3157 27.504 11.9781 27.7451C11.6404 27.9702 11.2304 28.0828 10.7481 28.0828ZM7.22687 18.9181C8.03079 18.9181 8.78648 18.701 9.49393 18.2669C10.2014 17.8328 10.7722 17.2459 11.2063 16.5063C11.6565 15.7667 11.8816 14.9386 11.8816 14.0222C11.8816 13.1218 11.6565 12.4143 11.2063 11.8998C10.7722 11.3692 10.0084 11.1039 8.91511 11.1039C7.88609 11.1039 7.29118 11.4255 7.1304 12.0686L5.85216 17.5916C5.64314 18.4759 6.10138 18.9181 7.22687 18.9181ZM15.991 13.2745C15.6534 13.2745 15.364 13.1539 15.1228 12.9127C14.8977 12.6716 14.7851 12.3661 14.7851 11.9963C14.7851 11.6265 14.8977 11.329 15.1228 11.1039C15.364 10.8627 15.6534 10.7421 15.991 10.7421C16.3287 10.7421 16.61 10.8627 16.8351 11.1039C17.0602 11.329 17.1728 11.6265 17.1728 11.9963C17.1728 12.3661 17.0602 12.6716 16.8351 12.9127C16.61 13.1539 16.3287 13.2745 15.991 13.2745ZM13.9651 27.8657C13.724 27.8657 13.6034 27.7773 13.6034 27.6004C13.6034 27.4557 13.7079 27.3593 13.9169 27.311L14.2063 27.2628C14.6083 27.1985 14.8655 27.102 14.9781 26.9734C15.0906 26.8287 15.1469 26.5875 15.1469 26.2498V18.1463C15.1469 17.8569 15.0987 17.6639 15.0022 17.5675C14.9218 17.4549 14.7691 17.3826 14.544 17.3504L14.0375 17.278C13.8285 17.262 13.724 17.1735 13.724 17.0128C13.724 16.8841 13.8526 16.7957 14.1098 16.7475C14.6083 16.6671 15.0102 16.5384 15.3157 16.3616C15.6212 16.1847 15.9187 15.9676 16.2081 15.7104C16.3528 15.5657 16.4734 15.4933 16.5698 15.4933C16.7146 15.4933 16.7869 15.5898 16.7869 15.7827V26.2498C16.7869 26.5875 16.8351 26.8287 16.9316 26.9734C17.0281 27.1181 17.213 27.2065 17.4863 27.2387L18.0893 27.311C18.2661 27.3432 18.3546 27.4316 18.3546 27.5763C18.3546 27.7693 18.234 27.8657 17.9928 27.8657H13.9651ZM18.8527 27.8657C18.6116 27.8657 18.491 27.7612 18.491 27.5522C18.491 27.4879 18.5151 27.4075 18.5633 27.311C18.6116 27.2145 18.6678 27.094 18.7321 26.9492L24.1345 16.6751C24.2149 16.5465 24.2229 16.4339 24.1586 16.3375C24.1104 16.241 24.0059 16.1927 23.8451 16.1927H22.8322C22.0443 16.1927 21.4575 16.3294 21.0716 16.6028C20.7018 16.8761 20.3963 17.27 20.1551 17.7845L19.6245 18.8939C19.528 19.103 19.4074 19.2075 19.2627 19.2075C19.0537 19.2075 18.9733 19.0869 19.0216 18.8457L19.6004 15.5657C19.6647 15.1798 19.8094 14.9869 20.0345 14.9869C20.1792 14.9869 20.2676 15.0351 20.2998 15.1316C20.332 15.228 20.3882 15.3245 20.4686 15.421C20.5651 15.5175 20.7661 15.5657 21.0716 15.5657H25.8951C26.1363 15.5657 26.2569 15.6702 26.2569 15.8792C26.2569 15.9435 26.2328 16.0239 26.1845 16.1204C26.1524 16.2169 26.0961 16.3375 26.0157 16.4822L20.6374 26.7563C20.5731 26.8849 20.5571 26.9975 20.5892 27.094C20.6374 27.1904 20.75 27.2387 20.9269 27.2387H22.0122C22.9608 27.2387 23.628 27.11 24.0139 26.8528C24.3998 26.5794 24.7133 26.1453 24.9545 25.5504L25.6781 23.7898C25.7745 23.5808 25.8951 23.4763 26.0398 23.4763C26.2488 23.4763 26.3292 23.613 26.281 23.8863L25.6539 27.4316C25.6057 27.721 25.4369 27.8657 25.1475 27.8657H18.8527ZM26.8728 27.8657C26.6316 27.8657 26.5111 27.7612 26.5111 27.5522C26.5111 27.4879 26.5352 27.4075 26.5834 27.311C26.6316 27.2145 26.6879 27.094 26.7522 26.9492L32.1546 16.6751C32.235 16.5465 32.243 16.4339 32.1787 16.3375C32.1305 16.241 32.026 16.1927 31.8652 16.1927H30.8522C30.0644 16.1927 29.4775 16.3294 29.0916 16.6028C28.7218 16.8761 28.4164 17.27 28.1752 17.7845L27.6446 18.8939C27.5481 19.103 27.4275 19.2075 27.2828 19.2075C27.0738 19.2075 26.9934 19.0869 27.0416 18.8457L27.6205 15.5657C27.6848 15.1798 27.8295 14.9869 28.0546 14.9869C28.1993 14.9869 28.2877 15.0351 28.3199 15.1316C28.352 15.228 28.4083 15.3245 28.4887 15.421C28.5852 15.5175 28.7862 15.5657 29.0916 15.5657H33.9152C34.1564 15.5657 34.277 15.6702 34.277 15.8792C34.277 15.9435 34.2528 16.0239 34.2046 16.1204C34.1724 16.2169 34.1162 16.3375 34.0358 16.4822L28.6575 26.7563C28.5932 26.8849 28.5771 26.9975 28.6093 27.094C28.6575 27.1904 28.7701 27.2387 28.9469 27.2387H30.0322C30.9809 27.2387 31.6481 27.11 32.034 26.8528C32.4199 26.5794 32.7334 26.1453 32.9746 25.5504L33.6981 23.7898C33.7946 23.5808 33.9152 23.4763 34.0599 23.4763C34.2689 23.4763 34.3493 23.613 34.3011 23.8863L33.674 27.4316C33.6258 27.721 33.457 27.8657 33.1675 27.8657H26.8728ZM34.6517 27.8657C34.4588 27.8657 34.3623 27.7773 34.3623 27.6004C34.3623 27.4396 34.4507 27.3432 34.6276 27.311L34.9653 27.2628C35.3029 27.2145 35.5521 27.1181 35.7129 26.9734C35.8737 26.8287 35.9541 26.5875 35.9541 26.2498V12.4304C35.9541 12.141 35.9058 11.94 35.8094 11.8274C35.729 11.7149 35.5762 11.6506 35.3511 11.6345L34.7964 11.5621C34.6196 11.53 34.5311 11.4335 34.5311 11.2727C34.5311 11.112 34.6196 11.0155 34.7964 10.9833C35.2466 10.8869 35.6325 10.7743 35.9541 10.6457C36.2757 10.517 36.5409 10.3884 36.75 10.2598C37.0072 10.099 37.2002 10.0186 37.3288 10.0186C37.5057 10.0186 37.5941 10.1472 37.5941 10.4045V26.2498C37.5941 26.5875 37.6423 26.8287 37.7388 26.9734C37.8513 27.102 38.0764 27.1904 38.4141 27.2387L38.9688 27.311C39.1457 27.3432 39.2341 27.4396 39.2341 27.6004C39.2341 27.7773 39.1376 27.8657 38.9447 27.8657H34.6517ZM40.7997 32.8099C40.3656 32.8099 40.0199 32.6571 39.7626 32.3516C39.5054 32.0622 39.3767 31.7246 39.3767 31.3387C39.3767 31.0332 39.4652 30.7759 39.642 30.5669C39.8189 30.3579 40.0601 30.2534 40.3656 30.2534C40.6228 30.2534 40.8077 30.3097 40.9203 30.4222C41.0328 30.5347 41.1132 30.6634 41.1614 30.8081C41.2097 30.9528 41.2579 31.0814 41.3061 31.194C41.3544 31.3065 41.4508 31.3628 41.5956 31.3628C41.7724 31.3628 41.9332 31.2342 42.0779 30.9769C42.2226 30.7357 42.4236 30.2132 42.6809 29.4093C42.8416 28.9269 42.9381 28.5089 42.9703 28.1551C43.0185 27.8014 43.0105 27.4236 42.9461 27.0216C42.8979 26.6196 42.7773 26.1292 42.5844 25.5504L39.9556 17.1816C39.843 16.7957 39.7305 16.5465 39.6179 16.4339C39.5214 16.3214 39.3606 16.241 39.1355 16.1927L38.7738 16.1204C38.5648 16.0722 38.4603 15.9677 38.4603 15.8069C38.4603 15.6461 38.5728 15.5657 38.7979 15.5657H42.7773C43.0024 15.5657 43.115 15.6461 43.115 15.8069C43.115 15.9837 43.0105 16.0882 42.8014 16.1204L42.4156 16.1686C42.0297 16.2169 41.7805 16.3133 41.6679 16.458C41.5714 16.5867 41.5795 16.8278 41.692 17.1816L43.8144 24.2481C43.8626 24.4089 43.935 24.4892 44.0314 24.4892C44.144 24.4892 44.2244 24.4089 44.2726 24.2481L46.3226 17.6157C46.4513 17.1816 46.4834 16.86 46.4191 16.651C46.3709 16.4259 46.1458 16.2812 45.7438 16.2169L45.2373 16.1204C45.0283 16.0722 44.9238 15.9677 44.9238 15.8069C44.9238 15.6461 45.0364 15.5657 45.2614 15.5657H48.3244C48.5495 15.5657 48.662 15.6541 48.662 15.831C48.662 15.9918 48.5656 16.1043 48.3726 16.1686L48.1556 16.241C47.9144 16.3214 47.7134 16.4661 47.5526 16.6751C47.3918 16.8841 47.223 17.2459 47.0462 17.7604L43.4526 28.9751C43.0989 30.1006 42.7773 30.9367 42.4879 31.4834C42.2146 32.03 41.9493 32.3838 41.692 32.5446C41.4348 32.7214 41.1373 32.8099 40.7997 32.8099Z"/>
</mask>
<path d="M10.7481 28.0828C10.0728 28.0828 9.51805 27.8416 9.08393 27.3593C8.66589 26.8769 8.46491 26.2016 8.48099 25.3334L8.50511 22.6563C8.52119 21.7881 8.47295 21.1288 8.3604 20.6786C8.24785 20.2284 8.03883 19.923 7.73334 19.7622C7.42785 19.6014 6.97765 19.521 6.38275 19.521C6.02902 19.521 5.76373 19.5853 5.58686 19.7139C5.42608 19.8426 5.31353 20.0435 5.24922 20.3169L3.85039 26.1775C3.77 26.5151 3.77804 26.7483 3.87451 26.8769C3.97098 27.0055 4.22019 27.102 4.62216 27.1663L5.68334 27.311C5.90843 27.3271 6.02098 27.4155 6.02098 27.5763C6.02098 27.7693 5.89236 27.8657 5.6351 27.8657H0.522145C0.297046 27.8657 0.184497 27.7853 0.184497 27.6245C0.184497 27.4477 0.345281 27.3351 0.666851 27.2869L1.14921 27.2145C1.50293 27.1663 1.74411 27.0859 1.87274 26.9734C2.01744 26.8447 2.12195 26.6116 2.18627 26.274L5.46628 12.0927C5.54667 11.7551 5.54667 11.53 5.46628 11.4174C5.38588 11.3049 5.1849 11.2165 4.86333 11.1521L4.38098 11.0557C4.17196 11.0074 4.06745 10.919 4.06745 10.7904C4.06745 10.5974 4.21215 10.501 4.50157 10.501H9.39746C10.3461 10.501 11.1339 10.6698 11.761 11.0074C12.3881 11.3451 12.8543 11.7953 13.1598 12.358C13.4814 12.9208 13.6422 13.5398 13.6422 14.2151C13.6422 15.0673 13.4251 15.839 12.991 16.5304C12.5569 17.2218 11.9861 17.8086 11.2786 18.291C10.5873 18.7573 9.83962 19.103 9.0357 19.3281C8.93923 19.3441 8.88295 19.3924 8.86687 19.4728C8.86687 19.5371 8.91511 19.5933 9.01158 19.6416C9.46178 19.8828 9.76727 20.2204 9.92805 20.6545C10.0888 21.0886 10.1692 21.6675 10.1692 22.391V24.851C10.1692 25.7353 10.2657 26.3463 10.4586 26.684C10.6516 27.0055 10.9169 27.1663 11.2545 27.1663C11.3832 27.1663 11.4957 27.1502 11.5922 27.1181C11.6886 27.0698 11.8173 26.9894 11.9781 26.8769C12.1067 26.7643 12.2192 26.7322 12.3157 26.7804C12.4283 26.8287 12.4845 26.9171 12.4845 27.0457C12.4845 27.2708 12.3157 27.504 11.9781 27.7451C11.6404 27.9702 11.2304 28.0828 10.7481 28.0828ZM7.22687 18.9181C8.03079 18.9181 8.78648 18.701 9.49393 18.2669C10.2014 17.8328 10.7722 17.2459 11.2063 16.5063C11.6565 15.7667 11.8816 14.9386 11.8816 14.0222C11.8816 13.1218 11.6565 12.4143 11.2063 11.8998C10.7722 11.3692 10.0084 11.1039 8.91511 11.1039C7.88609 11.1039 7.29118 11.4255 7.1304 12.0686L5.85216 17.5916C5.64314 18.4759 6.10138 18.9181 7.22687 18.9181ZM15.991 13.2745C15.6534 13.2745 15.364 13.1539 15.1228 12.9127C14.8977 12.6716 14.7851 12.3661 14.7851 11.9963C14.7851 11.6265 14.8977 11.329 15.1228 11.1039C15.364 10.8627 15.6534 10.7421 15.991 10.7421C16.3287 10.7421 16.61 10.8627 16.8351 11.1039C17.0602 11.329 17.1728 11.6265 17.1728 11.9963C17.1728 12.3661 17.0602 12.6716 16.8351 12.9127C16.61 13.1539 16.3287 13.2745 15.991 13.2745ZM13.9651 27.8657C13.724 27.8657 13.6034 27.7773 13.6034 27.6004C13.6034 27.4557 13.7079 27.3593 13.9169 27.311L14.2063 27.2628C14.6083 27.1985 14.8655 27.102 14.9781 26.9734C15.0906 26.8287 15.1469 26.5875 15.1469 26.2498V18.1463C15.1469 17.8569 15.0987 17.6639 15.0022 17.5675C14.9218 17.4549 14.7691 17.3826 14.544 17.3504L14.0375 17.278C13.8285 17.262 13.724 17.1735 13.724 17.0128C13.724 16.8841 13.8526 16.7957 14.1098 16.7475C14.6083 16.6671 15.0102 16.5384 15.3157 16.3616C15.6212 16.1847 15.9187 15.9676 16.2081 15.7104C16.3528 15.5657 16.4734 15.4933 16.5698 15.4933C16.7146 15.4933 16.7869 15.5898 16.7869 15.7827V26.2498C16.7869 26.5875 16.8351 26.8287 16.9316 26.9734C17.0281 27.1181 17.213 27.2065 17.4863 27.2387L18.0893 27.311C18.2661 27.3432 18.3546 27.4316 18.3546 27.5763C18.3546 27.7693 18.234 27.8657 17.9928 27.8657H13.9651ZM18.8527 27.8657C18.6116 27.8657 18.491 27.7612 18.491 27.5522C18.491 27.4879 18.5151 27.4075 18.5633 27.311C18.6116 27.2145 18.6678 27.094 18.7321 26.9492L24.1345 16.6751C24.2149 16.5465 24.2229 16.4339 24.1586 16.3375C24.1104 16.241 24.0059 16.1927 23.8451 16.1927H22.8322C22.0443 16.1927 21.4575 16.3294 21.0716 16.6028C20.7018 16.8761 20.3963 17.27 20.1551 17.7845L19.6245 18.8939C19.528 19.103 19.4074 19.2075 19.2627 19.2075C19.0537 19.2075 18.9733 19.0869 19.0216 18.8457L19.6004 15.5657C19.6647 15.1798 19.8094 14.9869 20.0345 14.9869C20.1792 14.9869 20.2676 15.0351 20.2998 15.1316C20.332 15.228 20.3882 15.3245 20.4686 15.421C20.5651 15.5175 20.7661 15.5657 21.0716 15.5657H25.8951C26.1363 15.5657 26.2569 15.6702 26.2569 15.8792C26.2569 15.9435 26.2328 16.0239 26.1845 16.1204C26.1524 16.2169 26.0961 16.3375 26.0157 16.4822L20.6374 26.7563C20.5731 26.8849 20.5571 26.9975 20.5892 27.094C20.6374 27.1904 20.75 27.2387 20.9269 27.2387H22.0122C22.9608 27.2387 23.628 27.11 24.0139 26.8528C24.3998 26.5794 24.7133 26.1453 24.9545 25.5504L25.6781 23.7898C25.7745 23.5808 25.8951 23.4763 26.0398 23.4763C26.2488 23.4763 26.3292 23.613 26.281 23.8863L25.6539 27.4316C25.6057 27.721 25.4369 27.8657 25.1475 27.8657H18.8527ZM26.8728 27.8657C26.6316 27.8657 26.5111 27.7612 26.5111 27.5522C26.5111 27.4879 26.5352 27.4075 26.5834 27.311C26.6316 27.2145 26.6879 27.094 26.7522 26.9492L32.1546 16.6751C32.235 16.5465 32.243 16.4339 32.1787 16.3375C32.1305 16.241 32.026 16.1927 31.8652 16.1927H30.8522C30.0644 16.1927 29.4775 16.3294 29.0916 16.6028C28.7218 16.8761 28.4164 17.27 28.1752 17.7845L27.6446 18.8939C27.5481 19.103 27.4275 19.2075 27.2828 19.2075C27.0738 19.2075 26.9934 19.0869 27.0416 18.8457L27.6205 15.5657C27.6848 15.1798 27.8295 14.9869 28.0546 14.9869C28.1993 14.9869 28.2877 15.0351 28.3199 15.1316C28.352 15.228 28.4083 15.3245 28.4887 15.421C28.5852 15.5175 28.7862 15.5657 29.0916 15.5657H33.9152C34.1564 15.5657 34.277 15.6702 34.277 15.8792C34.277 15.9435 34.2528 16.0239 34.2046 16.1204C34.1724 16.2169 34.1162 16.3375 34.0358 16.4822L28.6575 26.7563C28.5932 26.8849 28.5771 26.9975 28.6093 27.094C28.6575 27.1904 28.7701 27.2387 28.9469 27.2387H30.0322C30.9809 27.2387 31.6481 27.11 32.034 26.8528C32.4199 26.5794 32.7334 26.1453 32.9746 25.5504L33.6981 23.7898C33.7946 23.5808 33.9152 23.4763 34.0599 23.4763C34.2689 23.4763 34.3493 23.613 34.3011 23.8863L33.674 27.4316C33.6258 27.721 33.457 27.8657 33.1675 27.8657H26.8728ZM34.6517 27.8657C34.4588 27.8657 34.3623 27.7773 34.3623 27.6004C34.3623 27.4396 34.4507 27.3432 34.6276 27.311L34.9653 27.2628C35.3029 27.2145 35.5521 27.1181 35.7129 26.9734C35.8737 26.8287 35.9541 26.5875 35.9541 26.2498V12.4304C35.9541 12.141 35.9058 11.94 35.8094 11.8274C35.729 11.7149 35.5762 11.6506 35.3511 11.6345L34.7964 11.5621C34.6196 11.53 34.5311 11.4335 34.5311 11.2727C34.5311 11.112 34.6196 11.0155 34.7964 10.9833C35.2466 10.8869 35.6325 10.7743 35.9541 10.6457C36.2757 10.517 36.5409 10.3884 36.75 10.2598C37.0072 10.099 37.2002 10.0186 37.3288 10.0186C37.5057 10.0186 37.5941 10.1472 37.5941 10.4045V26.2498C37.5941 26.5875 37.6423 26.8287 37.7388 26.9734C37.8513 27.102 38.0764 27.1904 38.4141 27.2387L38.9688 27.311C39.1457 27.3432 39.2341 27.4396 39.2341 27.6004C39.2341 27.7773 39.1376 27.8657 38.9447 27.8657H34.6517ZM40.7997 32.8099C40.3656 32.8099 40.0199 32.6571 39.7626 32.3516C39.5054 32.0622 39.3767 31.7246 39.3767 31.3387C39.3767 31.0332 39.4652 30.7759 39.642 30.5669C39.8189 30.3579 40.0601 30.2534 40.3656 30.2534C40.6228 30.2534 40.8077 30.3097 40.9203 30.4222C41.0328 30.5347 41.1132 30.6634 41.1614 30.8081C41.2097 30.9528 41.2579 31.0814 41.3061 31.194C41.3544 31.3065 41.4508 31.3628 41.5956 31.3628C41.7724 31.3628 41.9332 31.2342 42.0779 30.9769C42.2226 30.7357 42.4236 30.2132 42.6809 29.4093C42.8416 28.9269 42.9381 28.5089 42.9703 28.1551C43.0185 27.8014 43.0105 27.4236 42.9461 27.0216C42.8979 26.6196 42.7773 26.1292 42.5844 25.5504L39.9556 17.1816C39.843 16.7957 39.7305 16.5465 39.6179 16.4339C39.5214 16.3214 39.3606 16.241 39.1355 16.1927L38.7738 16.1204C38.5648 16.0722 38.4603 15.9677 38.4603 15.8069C38.4603 15.6461 38.5728 15.5657 38.7979 15.5657H42.7773C43.0024 15.5657 43.115 15.6461 43.115 15.8069C43.115 15.9837 43.0105 16.0882 42.8014 16.1204L42.4156 16.1686C42.0297 16.2169 41.7805 16.3133 41.6679 16.458C41.5714 16.5867 41.5795 16.8278 41.692 17.1816L43.8144 24.2481C43.8626 24.4089 43.935 24.4892 44.0314 24.4892C44.144 24.4892 44.2244 24.4089 44.2726 24.2481L46.3226 17.6157C46.4513 17.1816 46.4834 16.86 46.4191 16.651C46.3709 16.4259 46.1458 16.2812 45.7438 16.2169L45.2373 16.1204C45.0283 16.0722 44.9238 15.9677 44.9238 15.8069C44.9238 15.6461 45.0364 15.5657 45.2614 15.5657H48.3244C48.5495 15.5657 48.662 15.6541 48.662 15.831C48.662 15.9918 48.5656 16.1043 48.3726 16.1686L48.1556 16.241C47.9144 16.3214 47.7134 16.4661 47.5526 16.6751C47.3918 16.8841 47.223 17.2459 47.0462 17.7604L43.4526 28.9751C43.0989 30.1006 42.7773 30.9367 42.4879 31.4834C42.2146 32.03 41.9493 32.3838 41.692 32.5446C41.4348 32.7214 41.1373 32.8099 40.7997 32.8099Z" fill="black"/>
<path d="M9.08393 27.3593L8.94415 27.4804L8.94647 27.483L9.08393 27.3593ZM8.48099 25.3334L8.6659 25.3368L8.66592 25.335L8.48099 25.3334ZM8.50511 22.6563L8.3202 22.6529L8.32018 22.6546L8.50511 22.6563ZM7.73334 19.7622L7.81947 19.5985V19.5985L7.73334 19.7622ZM5.58686 19.7139L5.47798 19.5642L5.47134 19.5695L5.58686 19.7139ZM5.24922 20.3169L5.4291 20.3598L5.42924 20.3592L5.24922 20.3169ZM3.85039 26.1775L3.67051 26.1345L3.67048 26.1346L3.85039 26.1775ZM4.62216 27.1663L4.59293 27.349L4.59717 27.3495L4.62216 27.1663ZM5.68334 27.311L5.6583 27.4946L5.67016 27.4955L5.68334 27.311ZM0.666851 27.2869L0.694284 27.4698H0.694284L0.666851 27.2869ZM1.14921 27.2145L1.12422 27.0313L1.12177 27.0317L1.14921 27.2145ZM1.87274 26.9734L1.99452 27.1126L1.9956 27.1116L1.87274 26.9734ZM2.18627 26.274L2.00595 26.2322L2.0046 26.2393L2.18627 26.274ZM5.46628 12.0927L5.28637 12.0499L5.2861 12.0511L5.46628 12.0927ZM5.46628 11.4174L5.61677 11.3099L5.61676 11.3099L5.46628 11.4174ZM4.38098 11.0557L4.33938 11.236L4.34471 11.237L4.38098 11.0557ZM11.761 11.0074L11.8487 10.8446V10.8446L11.761 11.0074ZM13.1598 12.358L12.9973 12.4463L12.9993 12.4498L13.1598 12.358ZM12.991 16.5304L13.1476 16.6287V16.6287L12.991 16.5304ZM11.2786 18.291L11.3821 18.4443L11.3828 18.4438L11.2786 18.291ZM9.0357 19.3281L9.0661 19.5105L9.07595 19.5088L9.08556 19.5061L9.0357 19.3281ZM8.86687 19.4728L8.68553 19.4365L8.68194 19.4544V19.4728H8.86687ZM9.01158 19.6416L9.09895 19.4785L9.09429 19.4762L9.01158 19.6416ZM9.92805 20.6545L10.1015 20.5903H10.1015L9.92805 20.6545ZM10.4586 26.684L10.298 26.7757L10.3001 26.7791L10.4586 26.684ZM11.5922 27.1181L11.6507 27.2935L11.6631 27.2894L11.6749 27.2835L11.5922 27.1181ZM11.9781 26.8769L12.0841 27.0284L12.0923 27.0227L12.0998 27.0161L11.9781 26.8769ZM12.3157 26.7804L12.2329 26.9461L12.2429 26.9504L12.3157 26.7804ZM11.9781 27.7451L12.0807 27.8991L12.0856 27.8956L11.9781 27.7451ZM9.49393 18.2669L9.39721 18.1092V18.1092L9.49393 18.2669ZM11.2063 16.5063L11.0483 16.4101L11.0468 16.4127L11.2063 16.5063ZM11.2063 11.8998L11.0631 12.017L11.0671 12.0216L11.2063 11.8998ZM7.1304 12.0686L6.95096 12.0238L6.95023 12.0269L7.1304 12.0686ZM5.85216 17.5916L6.03214 17.6341L6.03233 17.6333L5.85216 17.5916ZM10.7481 28.0828V27.8978C10.1228 27.8978 9.61886 27.6772 9.22139 27.2355L9.08393 27.3593L8.94647 27.483C9.41725 28.0061 10.0227 28.2677 10.7481 28.2677V28.0828ZM9.08393 27.3593L9.22369 27.2381C8.8449 26.8011 8.65035 26.176 8.66589 25.3368L8.48099 25.3334L8.29609 25.3299C8.27947 26.2272 8.48688 26.9527 8.94418 27.4804L9.08393 27.3593ZM8.48099 25.3334L8.66592 25.335L8.69004 22.658L8.50511 22.6563L8.32018 22.6546L8.29606 25.3317L8.48099 25.3334ZM8.50511 22.6563L8.69001 22.6597C8.70618 21.7867 8.65837 21.108 8.53982 20.6338L8.3604 20.6786L8.18099 20.7235C8.28754 21.1497 8.33619 21.7894 8.3202 22.6529L8.50511 22.6563ZM8.3604 20.6786L8.53982 20.6338C8.41911 20.151 8.18607 19.7915 7.81947 19.5985L7.73334 19.7622L7.64721 19.9258C7.89159 20.0544 8.0766 20.3059 8.18099 20.7235L8.3604 20.6786ZM7.73334 19.7622L7.81947 19.5985C7.47466 19.417 6.98883 19.3361 6.38275 19.3361V19.521V19.7059C6.96648 19.7059 7.38104 19.7857 7.64721 19.9258L7.73334 19.7622ZM6.38275 19.521V19.3361C6.01211 19.3361 5.70071 19.4025 5.47809 19.5644L5.58686 19.7139L5.69564 19.8635C5.82674 19.7682 6.04594 19.7059 6.38275 19.7059V19.521ZM5.58686 19.7139L5.47134 19.5695C5.26827 19.732 5.13957 19.9754 5.0692 20.2745L5.24922 20.3169L5.42924 20.3592C5.48749 20.1117 5.58389 19.9531 5.70239 19.8583L5.58686 19.7139ZM5.24922 20.3169L5.06933 20.2739L3.67051 26.1345L3.85039 26.1775L4.03027 26.2204L5.4291 20.3598L5.24922 20.3169ZM3.85039 26.1775L3.67048 26.1346C3.62812 26.3126 3.6065 26.4729 3.6113 26.6119C3.61606 26.75 3.64749 26.8824 3.72656 26.9879L3.87451 26.8769L4.02246 26.7659C4.00505 26.7427 3.98423 26.6942 3.98095 26.5992C3.97771 26.5051 3.99226 26.3801 4.0303 26.2203L3.85039 26.1775ZM3.87451 26.8769L3.72656 26.9879C3.80514 27.0926 3.92923 27.1649 4.06701 27.2182C4.20829 27.2729 4.38504 27.3157 4.59294 27.3489L4.62216 27.1663L4.65137 26.9837C4.45731 26.9526 4.30848 26.915 4.20053 26.8733C4.0891 26.8301 4.04034 26.7898 4.02246 26.7659L3.87451 26.8769ZM4.62216 27.1663L4.59717 27.3495L5.65835 27.4943L5.68334 27.311L5.70832 27.1278L4.64714 26.9831L4.62216 27.1663ZM5.68334 27.311L5.67016 27.4955C5.76544 27.5023 5.8074 27.5231 5.82231 27.5348C5.82817 27.5394 5.8301 27.5427 5.83134 27.5454C5.83287 27.5488 5.83605 27.5578 5.83605 27.5763H6.02098H6.20592C6.20592 27.4471 6.15763 27.3279 6.05083 27.244C5.95319 27.1673 5.82633 27.1358 5.69651 27.1265L5.68334 27.311ZM6.02098 27.5763H5.83605C5.83605 27.6277 5.82174 27.6393 5.81355 27.6454C5.79536 27.6591 5.74595 27.6808 5.6351 27.6808V27.8657V28.0507C5.78151 28.0507 5.92504 28.0241 6.03547 27.9413C6.15592 27.851 6.20592 27.7179 6.20592 27.5763H6.02098ZM5.6351 27.8657V27.6808H0.522145V27.8657V28.0507H5.6351V27.8657ZM0.522145 27.8657V27.6808C0.426026 27.6808 0.387149 27.6626 0.3764 27.6549C0.373123 27.6526 0.373241 27.652 0.373185 27.6519C0.372673 27.6508 0.369432 27.6432 0.369432 27.6245H0.184497H-0.000439167C-0.000439167 27.7535 0.0481504 27.875 0.161417 27.9559C0.263218 28.0286 0.393165 28.0507 0.522145 28.0507V27.8657ZM0.184497 27.6245H0.369432C0.369432 27.6038 0.373862 27.5851 0.411139 27.559C0.45755 27.5265 0.54545 27.4921 0.694284 27.4698L0.666851 27.2869L0.639417 27.104C0.466682 27.1299 0.313406 27.1759 0.199031 27.256C0.0755239 27.3424 -0.000439167 27.4684 -0.000439167 27.6245H0.184497ZM0.666851 27.2869L0.694284 27.4698L1.17664 27.3974L1.14921 27.2145L1.12177 27.0317L0.639417 27.104L0.666851 27.2869ZM1.14921 27.2145L1.17419 27.3978C1.53224 27.349 1.82183 27.2636 1.99452 27.1125L1.87274 26.9734L1.75096 26.8342C1.66639 26.9082 1.47362 26.9837 1.12422 27.0313L1.14921 27.2145ZM1.87274 26.9734L1.9956 27.1116C2.18666 26.9418 2.30124 26.6587 2.36794 26.3086L2.18627 26.274L2.0046 26.2393C1.94266 26.5645 1.84823 26.7477 1.74987 26.8351L1.87274 26.9734ZM2.18627 26.274L2.36645 26.3156L5.64646 12.1344L5.46628 12.0927L5.2861 12.0511L2.00609 26.2323L2.18627 26.274ZM5.46628 12.0927L5.64618 12.1356C5.68813 11.9594 5.71151 11.8032 5.71151 11.6707C5.71151 11.5417 5.68948 11.4118 5.61677 11.3099L5.46628 11.4174L5.31579 11.5249C5.32347 11.5357 5.34163 11.5746 5.34163 11.6707C5.34163 11.7633 5.32482 11.8884 5.28637 12.0499L5.46628 12.0927ZM5.46628 11.4174L5.61676 11.3099C5.54904 11.2151 5.44443 11.1479 5.32973 11.0974C5.21256 11.0459 5.06776 11.0044 4.8996 10.9708L4.86333 11.1521L4.82706 11.3335C4.98048 11.3642 5.09695 11.3991 5.18077 11.436C5.26705 11.4739 5.30312 11.5072 5.31579 11.5249L5.46628 11.4174ZM4.86333 11.1521L4.8996 10.9708L4.41725 10.8743L4.38098 11.0557L4.34471 11.237L4.82706 11.3335L4.86333 11.1521ZM4.38098 11.0557L4.42256 10.8755C4.33208 10.8546 4.28586 10.8294 4.26529 10.812C4.25629 10.8044 4.25403 10.7998 4.25367 10.7991C4.25347 10.7987 4.25238 10.7967 4.25238 10.7904H4.06745H3.88251C3.88251 10.913 3.93564 11.0176 4.02637 11.0944C4.11032 11.1654 4.22086 11.2085 4.33939 11.2359L4.38098 11.0557ZM4.06745 10.7904H4.25238C4.25238 10.7654 4.25699 10.7525 4.25999 10.7465C4.26261 10.7412 4.26709 10.7348 4.27856 10.7272C4.30641 10.7086 4.37157 10.6859 4.50157 10.6859V10.501V10.316C4.34215 10.316 4.19025 10.3415 4.07339 10.4194C3.9433 10.5062 3.88251 10.64 3.88251 10.7904H4.06745ZM4.50157 10.501V10.6859H9.39746V10.501V10.316H4.50157V10.501ZM9.39746 10.501V10.6859C10.3253 10.6859 11.0807 10.8511 11.6733 11.1703L11.761 11.0074L11.8487 10.8446C11.1872 10.4884 10.3669 10.316 9.39746 10.316V10.501ZM11.761 11.0074L11.6733 11.1703C12.2724 11.4928 12.7109 11.9186 12.9973 12.4463L13.1598 12.358L13.3224 12.2698C12.9978 11.6719 12.5037 11.1973 11.8487 10.8446L11.761 11.0074ZM13.1598 12.358L12.9993 12.4498C13.3042 12.9834 13.4572 13.5706 13.4572 14.2151H13.6422H13.8271C13.8271 13.509 13.6586 12.8582 13.3204 12.2663L13.1598 12.358ZM13.6422 14.2151H13.4572C13.4572 15.0341 13.2492 15.7715 12.8344 16.4321L12.991 16.5304L13.1476 16.6287C13.6011 15.9066 13.8271 15.1004 13.8271 14.2151H13.6422ZM12.991 16.5304L12.8344 16.4321C12.4145 17.1008 11.8619 17.6695 11.1745 18.1382L11.2786 18.291L11.3828 18.4438C12.1103 17.9478 12.6993 17.3427 13.1476 16.6287L12.991 16.5304ZM11.2786 18.291L11.1752 18.1377C10.5003 18.5929 9.77072 18.9302 8.98583 19.15L9.0357 19.3281L9.08556 19.5061C9.90852 19.2757 10.6743 18.9217 11.3821 18.4443L11.2786 18.291ZM9.0357 19.3281L9.0053 19.1456C8.93416 19.1575 8.86146 19.1839 8.80078 19.2359C8.73788 19.2898 8.70077 19.3603 8.68553 19.4365L8.86687 19.4728L9.04822 19.509C9.04884 19.5059 9.04915 19.5065 9.04765 19.5092C9.04605 19.512 9.04376 19.5148 9.04149 19.5167C9.03709 19.5205 9.04077 19.5147 9.0661 19.5105L9.0357 19.3281ZM8.86687 19.4728H8.68194C8.68194 19.6463 8.81482 19.75 8.92887 19.807L9.01158 19.6416L9.09429 19.4762C9.07732 19.4677 9.06508 19.4601 9.05655 19.454C9.04798 19.4478 9.04432 19.4438 9.04346 19.4428C9.04276 19.442 9.04515 19.4446 9.04763 19.4508C9.05025 19.4574 9.05181 19.4651 9.05181 19.4728H8.86687ZM9.01158 19.6416L8.92425 19.8046C9.33908 20.0268 9.61119 20.3315 9.75463 20.7188L9.92805 20.6545L10.1015 20.5903C9.92335 20.1094 9.58447 19.7387 9.09891 19.4786L9.01158 19.6416ZM9.92805 20.6545L9.75463 20.7188C9.90475 21.1241 9.98429 21.6785 9.98429 22.391H10.1692H10.3542C10.3542 21.6565 10.2729 21.0532 10.1015 20.5903L9.92805 20.6545ZM10.1692 22.391H9.98429V24.851H10.1692H10.3542V22.391H10.1692ZM10.1692 24.851H9.98429C9.98429 25.7362 10.0787 26.3918 10.2981 26.7757L10.4586 26.684L10.6192 26.5922C10.4527 26.3008 10.3542 25.7345 10.3542 24.851H10.1692ZM10.4586 26.684L10.3001 26.7791C10.522 27.149 10.8437 27.3512 11.2545 27.3512V27.1663V26.9814C10.99 26.9814 10.7812 26.8621 10.6172 26.5888L10.4586 26.684ZM11.2545 27.1663V27.3512C11.398 27.3512 11.5311 27.3334 11.6507 27.2935L11.5922 27.1181L11.5337 26.9426C11.4603 26.9671 11.3683 26.9814 11.2545 26.9814V27.1663ZM11.5922 27.1181L11.6749 27.2835C11.7835 27.2292 11.9209 27.1427 12.0841 27.0284L11.9781 26.8769L11.872 26.7254C11.7137 26.8362 11.5938 26.9105 11.5095 26.9527L11.5922 27.1181ZM11.9781 26.8769L12.0998 27.0161C12.1523 26.9701 12.1889 26.9521 12.2097 26.9462C12.2257 26.9416 12.2298 26.9443 12.233 26.9458L12.3157 26.7804L12.3984 26.615C12.1994 26.5155 12.0041 26.6084 11.8563 26.7377L11.9781 26.8769ZM12.3157 26.7804L12.2429 26.9504C12.2708 26.9624 12.2813 26.9744 12.2863 26.9822C12.2917 26.9907 12.2996 27.0086 12.2996 27.0457H12.4845H12.6695C12.6695 26.9542 12.6493 26.8636 12.5983 26.7836C12.547 26.703 12.4731 26.6467 12.3886 26.6104L12.3157 26.7804ZM12.4845 27.0457H12.2996C12.2996 27.1754 12.1987 27.3603 11.8706 27.5946L11.9781 27.7451L12.0856 27.8956C12.4327 27.6476 12.6695 27.3662 12.6695 27.0457H12.4845ZM11.9781 27.7451L11.8755 27.5913C11.5736 27.7925 11.2009 27.8978 10.7481 27.8978V28.0828V28.2677C11.2599 28.2677 11.7073 28.1479 12.0806 27.899L11.9781 27.7451ZM7.22687 18.918V19.103C8.06608 19.103 8.8551 18.8759 9.59066 18.4245L9.49393 18.2669L9.39721 18.1092C8.71787 18.5261 7.9955 18.7331 7.22687 18.7331V18.918ZM9.49393 18.2669L9.59066 18.4245C10.3248 17.974 10.9168 17.3648 11.3658 16.5999L11.2063 16.5063L11.0468 16.4127C10.6275 17.127 10.0779 17.6915 9.39721 18.1092L9.49393 18.2669ZM11.2063 16.5063L11.3643 16.6024C11.8331 15.8321 12.0665 14.9705 12.0665 14.0222H11.8816H11.6967C11.6967 14.9068 11.4798 15.7012 11.0483 16.4101L11.2063 16.5063ZM11.8816 14.0222H12.0665C12.0665 13.0914 11.8335 12.3357 11.3455 11.778L11.2063 11.8998L11.0671 12.0216C11.4795 12.4929 11.6967 13.1521 11.6967 14.0222H11.8816ZM11.2063 11.8998L11.3494 11.7827C10.8637 11.189 10.0311 10.919 8.91511 10.919V11.1039V11.2888C9.98581 11.2888 10.6807 11.5494 11.0632 12.0169L11.2063 11.8998ZM8.91511 11.1039V10.919C8.38456 10.919 7.94417 11.0013 7.60922 11.1824C7.26713 11.3673 7.04426 11.6507 6.95098 12.0238L7.1304 12.0686L7.30981 12.1135C7.37733 11.8434 7.53229 11.6444 7.78511 11.5078C8.04506 11.3673 8.41664 11.2888 8.91511 11.2888V11.1039ZM7.1304 12.0686L6.95023 12.0269L5.67199 17.5499L5.85216 17.5916L6.03233 17.6333L7.31057 12.1103L7.1304 12.0686ZM5.85216 17.5916L5.67218 17.549C5.55973 18.0248 5.61598 18.4352 5.91066 18.7195C6.1926 18.9916 6.6499 19.103 7.22687 19.103V18.918V18.7331C6.67834 18.7331 6.34378 18.6235 6.16749 18.4533C6.00392 18.2955 5.93557 18.0427 6.03214 17.6341L5.85216 17.5916ZM15.1228 12.9127L14.9875 13.039L14.992 13.0435L15.1228 12.9127ZM15.1228 11.1039L14.992 10.9731H14.992L15.1228 11.1039ZM16.8351 11.1039L16.6999 11.2302L16.7044 11.2347L16.8351 11.1039ZM16.8351 12.9127L16.9703 13.0389V13.0389L16.8351 12.9127ZM13.9169 27.311L13.8864 27.1282L13.8753 27.1308L13.9169 27.311ZM14.2063 27.2628L14.1771 27.0802L14.1759 27.0804L14.2063 27.2628ZM14.9781 26.9734L15.1175 27.0954L15.1241 27.0869L14.9781 26.9734ZM15.0022 17.5675L14.8517 17.675L14.8606 17.6874L14.8714 17.6982L15.0022 17.5675ZM14.544 17.3504L14.5701 17.1673V17.1673L14.544 17.3504ZM14.0375 17.278L14.0637 17.0946L14.0517 17.0937L14.0375 17.278ZM14.1098 16.7475L14.0804 16.5648L14.0758 16.5657L14.1098 16.7475ZM16.2081 15.7104L16.3312 15.8489L16.3388 15.8412L16.2081 15.7104ZM16.9316 26.9734L17.0855 26.8708V26.8708L16.9316 26.9734ZM17.4863 27.2387L17.5084 27.055L17.5079 27.055L17.4863 27.2387ZM18.0893 27.311L18.1224 27.1287L18.1113 27.1274L18.0893 27.311ZM15.991 13.2745V13.0896C15.703 13.0896 15.4604 12.9889 15.2536 12.782L15.1228 12.9127L14.992 13.0435C15.2675 13.319 15.6038 13.4594 15.991 13.4594V13.2745ZM15.1228 12.9127L15.258 12.7866C15.0688 12.5839 14.9701 12.3254 14.9701 11.9963H14.7851H14.6002C14.6002 12.4068 14.7266 12.7593 14.9876 13.0389L15.1228 12.9127ZM14.7851 11.9963H14.9701C14.9701 11.6669 15.0688 11.4195 15.2536 11.2347L15.1228 11.1039L14.992 10.9731C14.7266 11.2385 14.6002 11.586 14.6002 11.9963H14.7851ZM15.1228 11.1039L15.2536 11.2347C15.4604 11.0278 15.703 10.9271 15.991 10.9271V10.7421V10.5572C15.6038 10.5572 15.2675 10.6977 14.992 10.9731L15.1228 11.1039ZM15.991 10.7421V10.9271C16.2788 10.9271 16.5107 11.0274 16.6999 11.2301L16.8351 11.1039L16.9703 10.9777C16.7093 10.6981 16.3786 10.5572 15.991 10.5572V10.7421ZM16.8351 11.1039L16.7044 11.2347C16.8892 11.4195 16.9879 11.6669 16.9879 11.9963H17.1728H17.3577C17.3577 11.586 17.2313 11.2385 16.9659 10.9731L16.8351 11.1039ZM17.1728 11.9963H16.9879C16.9879 12.3254 16.8891 12.5839 16.6999 12.7866L16.8351 12.9127L16.9703 13.0389C17.2313 12.7593 17.3577 12.4068 17.3577 11.9963H17.1728ZM16.8351 12.9127L16.6999 12.7866C16.5107 12.9893 16.2788 13.0896 15.991 13.0896V13.2745V13.4594C16.3786 13.4594 16.7093 13.3186 16.9703 13.0389L16.8351 12.9127ZM13.9651 27.8657V27.6808C13.8617 27.6808 13.8176 27.6609 13.8032 27.6503C13.7979 27.6464 13.7959 27.6435 13.7943 27.64C13.7923 27.6354 13.7883 27.6238 13.7883 27.6004H13.6034H13.4184C13.4184 27.7356 13.4676 27.8628 13.5844 27.9485C13.6906 28.0264 13.8274 28.0507 13.9651 28.0507V27.8657ZM13.6034 27.6004H13.7883C13.7883 27.5787 13.7936 27.568 13.8072 27.5554C13.8268 27.5374 13.8706 27.5115 13.9585 27.4912L13.9169 27.311L13.8753 27.1308C13.7542 27.1588 13.6412 27.2053 13.5563 27.2837C13.4654 27.3676 13.4184 27.4775 13.4184 27.6004H13.6034ZM13.9169 27.311L13.9473 27.4934L14.2367 27.4452L14.2063 27.2628L14.1759 27.0804L13.8865 27.1286L13.9169 27.311ZM14.2063 27.2628L14.2355 27.4454C14.4435 27.4121 14.6214 27.3695 14.7657 27.3154C14.9073 27.2622 15.0322 27.1924 15.1173 27.0951L14.9781 26.9734L14.8389 26.8516C14.8114 26.883 14.7514 26.9257 14.6358 26.969C14.5228 27.0114 14.3711 27.0491 14.1771 27.0802L14.2063 27.2628ZM14.9781 26.9734L15.1241 27.0869C15.2756 26.892 15.3318 26.5984 15.3318 26.2498H15.1469H14.962C14.962 26.5766 14.9056 26.7653 14.8321 26.8598L14.9781 26.9734ZM15.1469 26.2498H15.3318V18.1463H15.1469H14.962V26.2498H15.1469ZM15.1469 18.1463H15.3318C15.3318 17.9927 15.3192 17.8558 15.2901 17.7397C15.2614 17.6247 15.2134 17.5171 15.133 17.4367L15.0022 17.5675L14.8714 17.6982C14.8875 17.7143 14.9118 17.7514 14.9313 17.8294C14.9505 17.9062 14.962 18.0105 14.962 18.1463H15.1469ZM15.0022 17.5675L15.1527 17.46C15.0287 17.2864 14.8144 17.2022 14.5701 17.1673L14.544 17.3504L14.5178 17.5335C14.7237 17.5629 14.8149 17.6234 14.8517 17.675L15.0022 17.5675ZM14.544 17.3504L14.5701 17.1673L14.0636 17.095L14.0375 17.278L14.0113 17.4611L14.5178 17.5335L14.544 17.3504ZM14.0375 17.278L14.0517 17.0937C13.9666 17.0871 13.9324 17.0674 13.9218 17.0585C13.9177 17.055 13.9157 17.0521 13.9141 17.0483C13.9122 17.0436 13.9089 17.033 13.9089 17.0128H13.724H13.539C13.539 17.137 13.5817 17.2552 13.6829 17.3408C13.7768 17.4203 13.8994 17.4529 14.0233 17.4624L14.0375 17.278ZM13.724 17.0128H13.9089C13.9089 17.0123 13.9089 17.0131 13.9085 17.0148C13.908 17.0165 13.9074 17.0177 13.9072 17.0181C13.9067 17.0189 13.91 17.0128 13.9252 17.0024C13.9586 16.9794 14.0257 16.9514 14.1439 16.9292L14.1098 16.7475L14.0758 16.5657C13.9367 16.5918 13.8109 16.6321 13.7157 16.6976C13.6134 16.7679 13.539 16.8741 13.539 17.0128H13.724ZM14.1098 16.7475L14.1393 16.93C14.6512 16.8475 15.0769 16.7135 15.4084 16.5216L15.3157 16.3616L15.2231 16.2015C14.9436 16.3633 14.5654 16.4867 14.0804 16.5649L14.1098 16.7475ZM15.3157 16.3616L15.4084 16.5216C15.7256 16.3379 16.0331 16.1134 16.3309 15.8486L16.2081 15.7104L16.0852 15.5722C15.8042 15.8219 15.5168 16.0315 15.2231 16.2015L15.3157 16.3616ZM16.2081 15.7104L16.3388 15.8412C16.4049 15.7751 16.4593 15.7319 16.5022 15.7062C16.5461 15.6798 16.5671 15.6783 16.5698 15.6783V15.4933V15.3084C16.4761 15.3084 16.3886 15.343 16.3119 15.389C16.2342 15.4356 16.156 15.501 16.0773 15.5796L16.2081 15.7104ZM16.5698 15.4933V15.6783C16.5857 15.6783 16.5908 15.6809 16.5897 15.6804C16.5892 15.6802 16.588 15.6795 16.5866 15.6784C16.5852 15.6774 16.5846 15.6765 16.5847 15.6767C16.5863 15.6788 16.602 15.7041 16.602 15.7827H16.7869H16.9718C16.9718 15.6685 16.9514 15.5491 16.8806 15.4547C16.8023 15.3504 16.6873 15.3084 16.5698 15.3084V15.4933ZM16.7869 15.7827H16.602V26.2498H16.7869H16.9718V15.7827H16.7869ZM16.7869 26.2498H16.602C16.602 26.5952 16.6494 26.8835 16.7777 27.076L16.9316 26.9734L17.0855 26.8708C17.0209 26.7738 16.9718 26.5798 16.9718 26.2498H16.7869ZM16.9316 26.9734L16.7777 27.076C16.9181 27.2866 17.1686 27.3875 17.4647 27.4223L17.4863 27.2387L17.5079 27.055C17.2573 27.0255 17.138 26.9496 17.0855 26.8708L16.9316 26.9734ZM17.4863 27.2387L17.4643 27.4223L18.0672 27.4946L18.0893 27.311L18.1113 27.1274L17.5084 27.055L17.4863 27.2387ZM18.0893 27.311L18.0562 27.493C18.1231 27.5051 18.1492 27.5239 18.1575 27.5322C18.1615 27.5363 18.1696 27.5447 18.1696 27.5763H18.3546H18.5395C18.5395 27.4632 18.5034 27.3551 18.419 27.2707C18.3389 27.1906 18.2323 27.1491 18.1223 27.1291L18.0893 27.311ZM18.3546 27.5763H18.1696C18.1696 27.632 18.1543 27.6444 18.1486 27.649C18.135 27.6598 18.0936 27.6808 17.9928 27.6808V27.8657V28.0507C18.1331 28.0507 18.2726 28.0234 18.3796 27.9378C18.4945 27.8459 18.5395 27.7136 18.5395 27.5763H18.3546ZM17.9928 27.8657V27.6808H13.9651V27.8657V28.0507H17.9928V27.8657ZM18.5633 27.311L18.3979 27.2283V27.2283L18.5633 27.311ZM18.7321 26.9492L18.5681 26.863L18.5632 26.8741L18.7321 26.9492ZM24.1345 16.6751L23.9773 16.5768L23.9708 16.589L24.1345 16.6751ZM24.1586 16.3375L23.9932 16.4202L23.9984 16.4305L24.0048 16.44L24.1586 16.3375ZM21.0716 16.6027L20.9646 16.4518L20.9616 16.454L21.0716 16.6027ZM20.1551 17.7845L20.3219 17.8643L20.3225 17.863L20.1551 17.7845ZM19.6245 18.8939L19.4577 18.8141L19.4566 18.8164L19.6245 18.8939ZM19.0216 18.8457L19.203 18.882L19.2037 18.8778L19.0216 18.8457ZM19.6004 15.5657L19.7825 15.5978L19.7828 15.5961L19.6004 15.5657ZM20.2998 15.1316L20.1244 15.1901V15.1901L20.2998 15.1316ZM20.4686 15.421L20.3266 15.5394L20.3319 15.5458L20.3379 15.5518L20.4686 15.421ZM26.1845 16.1204L26.0191 16.0377L26.0132 16.0494L26.0091 16.0619L26.1845 16.1204ZM26.0157 16.4822L25.854 16.3923L25.8519 16.3964L26.0157 16.4822ZM20.6374 26.7563L20.4736 26.6705L20.472 26.6736L20.6374 26.7563ZM20.5892 27.094L20.4138 27.1524L20.4179 27.1649L20.4238 27.1767L20.5892 27.094ZM24.0139 26.8528L24.1166 27.0067L24.1208 27.0037L24.0139 26.8528ZM24.9545 25.5504L24.7835 25.4801L24.7831 25.4809L24.9545 25.5504ZM25.6781 23.7898L25.51 23.7123L25.507 23.7195L25.6781 23.7898ZM26.281 23.8863L26.4631 23.9185L26.4631 23.9184L26.281 23.8863ZM25.6539 27.4316L25.4718 27.3994L25.4715 27.4012L25.6539 27.4316ZM18.8527 27.8657V27.6808C18.7547 27.6808 18.7157 27.659 18.7025 27.6476C18.6945 27.6406 18.6759 27.6208 18.6759 27.5522H18.491H18.306C18.306 27.6927 18.3478 27.8296 18.4603 27.9271C18.5677 28.0202 18.7096 28.0507 18.8527 28.0507V27.8657ZM18.491 27.5522H18.6759C18.6759 27.5298 18.6857 27.4797 18.7287 27.3937L18.5633 27.311L18.3979 27.2283C18.3444 27.3352 18.306 27.446 18.306 27.5522H18.491ZM18.5633 27.311L18.7287 27.3937C18.7787 27.2939 18.8362 27.1706 18.9011 27.0244L18.7321 26.9492L18.5632 26.8741C18.4995 27.0174 18.4445 27.1352 18.3979 27.2283L18.5633 27.311ZM18.7321 26.9492L18.8958 27.0353L24.2982 16.7612L24.1345 16.6751L23.9708 16.589L18.5685 26.8632L18.7321 26.9492ZM24.1345 16.6751L24.2913 16.7731C24.3423 16.6916 24.3785 16.6024 24.3853 16.5074C24.3923 16.409 24.3667 16.3162 24.3125 16.2349L24.1586 16.3375L24.0048 16.44C24.0148 16.4552 24.0174 16.4669 24.0164 16.481C24.0151 16.4986 24.0072 16.5299 23.9777 16.5771L24.1345 16.6751ZM24.1586 16.3375L24.324 16.2547C24.2304 16.0674 24.0375 16.0078 23.8451 16.0078V16.1927V16.3777C23.9087 16.3777 23.9463 16.3875 23.9666 16.3968C23.9835 16.4046 23.9892 16.4121 23.9932 16.4202L24.1586 16.3375ZM23.8451 16.1927V16.0078H22.8322V16.1927V16.3777H23.8451V16.1927ZM22.8322 16.1927V16.0078C22.0291 16.0078 21.3965 16.146 20.9647 16.4518L21.0716 16.6027L21.1785 16.7537C21.5184 16.5128 22.0595 16.3777 22.8322 16.3777V16.1927ZM21.0716 16.6027L20.9616 16.454C20.562 16.7495 20.2388 17.1702 19.9876 17.706L20.1551 17.7845L20.3225 17.863C20.5537 17.3699 20.8416 17.0027 21.1815 16.7515L21.0716 16.6027ZM20.1551 17.7845L19.9883 17.7047L19.4577 18.8141L19.6245 18.8939L19.7913 18.9737L20.3219 17.8643L20.1551 17.7845ZM19.6245 18.8939L19.4566 18.8164C19.3706 19.0027 19.2978 19.0225 19.2627 19.0225V19.2075V19.3924C19.5171 19.3924 19.6854 19.2032 19.7924 18.9714L19.6245 18.8939ZM19.2627 19.2075V19.0225C19.1906 19.0225 19.1918 19.0029 19.1996 19.0144C19.2003 19.0155 19.1821 18.9859 19.2029 18.882L19.0216 18.8457L18.8402 18.8094C18.8128 18.9467 18.8107 19.0979 18.8918 19.2196C18.9799 19.3518 19.1258 19.3924 19.2627 19.3924V19.2075ZM19.0216 18.8457L19.2037 18.8778L19.7825 15.5978L19.6004 15.5657L19.4183 15.5335L18.8394 18.8136L19.0216 18.8457ZM19.6004 15.5657L19.7828 15.5961C19.8128 15.4162 19.8583 15.305 19.9051 15.2425C19.9454 15.1888 19.9848 15.1718 20.0345 15.1718V14.9869V14.8019C19.8591 14.8019 19.7136 14.8814 19.6092 15.0206C19.5113 15.1511 19.4523 15.3293 19.418 15.5353L19.6004 15.5657ZM20.0345 14.9869V15.1718C20.0886 15.1718 20.113 15.1812 20.1208 15.1854C20.1239 15.1871 20.1239 15.1877 20.1231 15.1867C20.1222 15.1857 20.123 15.1861 20.1244 15.1901L20.2998 15.1316L20.4752 15.0731C20.4445 14.981 20.3836 14.9074 20.2979 14.8607C20.2173 14.8167 20.1251 14.8019 20.0345 14.8019V14.9869ZM20.2998 15.1316L20.1244 15.1901C20.1653 15.3129 20.2348 15.4292 20.3266 15.5394L20.4686 15.421L20.6107 15.3026C20.5417 15.2198 20.4986 15.1432 20.4752 15.0731L20.2998 15.1316ZM20.4686 15.421L20.3379 15.5518C20.4196 15.6335 20.5307 15.6811 20.6486 15.7093C20.7682 15.738 20.9105 15.7506 21.0716 15.7506V15.5657V15.3808C20.9271 15.3808 20.8162 15.3692 20.7349 15.3497C20.6517 15.3297 20.6141 15.3049 20.5994 15.2902L20.4686 15.421ZM21.0716 15.5657V15.7506H25.8951V15.5657V15.3808H21.0716V15.5657ZM25.8951 15.5657V15.7506C25.9932 15.7506 26.0322 15.7724 26.0453 15.7838C26.0534 15.7908 26.0719 15.8107 26.0719 15.8792H26.2569H26.4418C26.4418 15.7388 26.4001 15.6018 26.2876 15.5043C26.1801 15.4112 26.0382 15.3808 25.8951 15.3808V15.5657ZM26.2569 15.8792H26.0719C26.0719 15.9016 26.0621 15.9517 26.0191 16.0377L26.1845 16.1204L26.3499 16.2031C26.4034 16.0962 26.4418 15.9854 26.4418 15.8792H26.2569ZM26.1845 16.1204L26.0091 16.0619C25.9821 16.1429 25.9319 16.2523 25.854 16.3923L26.0157 16.4822L26.1774 16.572C26.2603 16.4227 26.3227 16.2908 26.36 16.1789L26.1845 16.1204ZM26.0157 16.4822L25.8519 16.3964L20.4736 26.6705L20.6374 26.7563L20.8013 26.8421L26.1795 16.5679L26.0157 16.4822ZM20.6374 26.7563L20.472 26.6736C20.395 26.8277 20.3606 26.993 20.4138 27.1524L20.5892 27.094L20.7647 27.0355C20.7535 27.0019 20.7513 26.9421 20.8029 26.839L20.6374 26.7563ZM20.5892 27.094L20.4238 27.1767C20.5203 27.3696 20.7281 27.4236 20.9269 27.4236V27.2387V27.0537C20.8532 27.0537 20.8081 27.0434 20.7826 27.0325C20.7608 27.0231 20.7565 27.0151 20.7546 27.0112L20.5892 27.094ZM20.9269 27.2387V27.4236H22.0122V27.2387V27.0537H20.9269V27.2387ZM22.0122 27.2387V27.4236C22.9661 27.4236 23.6819 27.2964 24.1165 27.0067L24.0139 26.8528L23.9113 26.6989C23.5742 26.9237 22.9555 27.0537 22.0122 27.0537V27.2387ZM24.0139 26.8528L24.1208 27.0037C24.5441 26.7038 24.8761 26.2362 25.1259 25.6199L24.9545 25.5504L24.7831 25.4809C24.5506 26.0545 24.2555 26.455 23.907 26.7019L24.0139 26.8528ZM24.9545 25.5504L25.1256 25.6207L25.8491 23.8601L25.6781 23.7898L25.507 23.7195L24.7835 25.4801L24.9545 25.5504ZM25.6781 23.7898L25.846 23.8673C25.9319 23.6811 26.0047 23.6612 26.0398 23.6612V23.4763V23.2914C25.7855 23.2914 25.6171 23.4805 25.5101 23.7123L25.6781 23.7898ZM26.0398 23.4763V23.6612C26.0728 23.6612 26.0884 23.6667 26.0935 23.6692C26.0964 23.6705 26.0964 23.6707 26.0975 23.6726C26.1038 23.6834 26.1205 23.7314 26.0989 23.8542L26.281 23.8863L26.4631 23.9184C26.4897 23.7679 26.4903 23.6109 26.4163 23.485C26.3324 23.3424 26.1861 23.2914 26.0398 23.2914V23.4763ZM26.281 23.8863L26.0989 23.8541L25.4718 27.3994L25.6539 27.4316L25.836 27.4638L26.4631 23.9185L26.281 23.8863ZM25.6539 27.4316L25.4715 27.4012C25.4522 27.5169 25.413 27.5806 25.3708 27.6168C25.3289 27.6527 25.2616 27.6808 25.1475 27.6808V27.8657V28.0507C25.3228 28.0507 25.4845 28.0064 25.6115 27.8976C25.7381 27.7891 25.8074 27.6357 25.8364 27.462L25.6539 27.4316ZM25.1475 27.8657V27.6808H18.8527V27.8657V28.0507H25.1475V27.8657ZM26.5834 27.311L26.418 27.2283V27.2283L26.5834 27.311ZM26.7522 26.9492L26.5882 26.863L26.5832 26.8741L26.7522 26.9492ZM32.1546 16.6751L31.9973 16.5768L31.9909 16.589L32.1546 16.6751ZM32.1787 16.3375L32.0133 16.4202L32.0185 16.4305L32.0248 16.44L32.1787 16.3375ZM29.0917 16.6027L28.9847 16.4518L28.9817 16.454L29.0917 16.6027ZM28.1752 17.7845L28.342 17.8643L28.3426 17.863L28.1752 17.7845ZM27.6446 18.8939L27.4777 18.8141L27.4767 18.8164L27.6446 18.8939ZM27.0416 18.8457L27.223 18.882L27.2238 18.8778L27.0416 18.8457ZM27.6205 15.5657L27.8026 15.5978L27.8029 15.5961L27.6205 15.5657ZM28.3199 15.1316L28.1444 15.1901L28.1444 15.1901L28.3199 15.1316ZM28.4887 15.421L28.3466 15.5394L28.352 15.5458L28.3579 15.5518L28.4887 15.421ZM34.2046 16.1204L34.0392 16.0377L34.0333 16.0494L34.0292 16.0619L34.2046 16.1204ZM34.0358 16.4822L33.8741 16.3923L33.8719 16.3964L34.0358 16.4822ZM28.6575 26.7563L28.4937 26.6705L28.4921 26.6736L28.6575 26.7563ZM28.6093 27.094L28.4338 27.1524L28.438 27.1649L28.4439 27.1767L28.6093 27.094ZM32.034 26.8528L32.1366 27.0067L32.1409 27.0037L32.034 26.8528ZM32.9746 25.5504L32.8035 25.4801L32.8032 25.4809L32.9746 25.5504ZM33.6981 23.7898L33.5301 23.7123L33.5271 23.7195L33.6981 23.7898ZM34.3011 23.8863L34.4832 23.9185L34.4832 23.9184L34.3011 23.8863ZM33.674 27.4316L33.4919 27.3994L33.4916 27.4012L33.674 27.4316ZM26.8728 27.8657V27.6808C26.7748 27.6808 26.7358 27.659 26.7226 27.6476C26.7145 27.6406 26.696 27.6208 26.696 27.5522H26.5111H26.3261C26.3261 27.6927 26.3679 27.8296 26.4804 27.9271C26.5878 28.0202 26.7297 28.0507 26.8728 28.0507V27.8657ZM26.5111 27.5522H26.696C26.696 27.5298 26.7058 27.4797 26.7488 27.3937L26.5834 27.311L26.418 27.2283C26.3645 27.3352 26.3261 27.446 26.3261 27.5522H26.5111ZM26.5834 27.311L26.7488 27.3937C26.7987 27.2939 26.8562 27.1706 26.9212 27.0244L26.7522 26.9492L26.5832 26.8741C26.5196 27.0174 26.4645 27.1352 26.418 27.2283L26.5834 27.311ZM26.7522 26.9492L26.9159 27.0353L32.3183 16.7612L32.1546 16.6751L31.9909 16.589L26.5885 26.8632L26.7522 26.9492ZM32.1546 16.6751L32.3114 16.7731C32.3623 16.6916 32.3986 16.6024 32.4054 16.5074C32.4124 16.409 32.3868 16.3162 32.3326 16.2349L32.1787 16.3375L32.0248 16.44C32.0349 16.4552 32.0375 16.4669 32.0365 16.481C32.0352 16.4986 32.0272 16.5299 31.9978 16.5771L32.1546 16.6751ZM32.1787 16.3375L32.3441 16.2547C32.2504 16.0674 32.0575 16.0078 31.8652 16.0078V16.1927V16.3777C31.9288 16.3777 31.9663 16.3875 31.9867 16.3968C32.0035 16.4046 32.0093 16.4121 32.0133 16.4202L32.1787 16.3375ZM31.8652 16.1927V16.0078H30.8522V16.1927V16.3777H31.8652V16.1927ZM30.8522 16.1927V16.0078C30.0492 16.0078 29.4165 16.146 28.9848 16.4518L29.0917 16.6027L29.1985 16.7537C29.5385 16.5128 30.0796 16.3777 30.8522 16.3777V16.1927ZM29.0917 16.6027L28.9817 16.454C28.582 16.7495 28.2589 17.1702 28.0077 17.706L28.1752 17.7845L28.3426 17.863C28.5738 17.3699 28.8617 17.0027 29.2016 16.7515L29.0917 16.6027ZM28.1752 17.7845L28.0083 17.7047L27.4777 18.8141L27.6446 18.8939L27.8114 18.9737L28.342 17.8643L28.1752 17.7845ZM27.6446 18.8939L27.4767 18.8164C27.3907 19.0027 27.3179 19.0225 27.2828 19.0225V19.2075V19.3924C27.5371 19.3924 27.7055 19.2032 27.8125 18.9714L27.6446 18.8939ZM27.2828 19.2075V19.0225C27.2107 19.0225 27.2119 19.0029 27.2196 19.0144C27.2204 19.0155 27.2022 18.9859 27.223 18.882L27.0416 18.8457L26.8603 18.8094C26.8329 18.9467 26.8308 19.0979 26.9119 19.2196C27 19.3518 27.1459 19.3924 27.2828 19.3924V19.2075ZM27.0416 18.8457L27.2238 18.8778L27.8026 15.5978L27.6205 15.5657L27.4383 15.5335L26.8595 18.8136L27.0416 18.8457ZM27.6205 15.5657L27.8029 15.5961C27.8329 15.4162 27.8784 15.305 27.9252 15.2425C27.9655 15.1888 28.0049 15.1718 28.0546 15.1718V14.9869V14.8019C27.8792 14.8019 27.7337 14.8814 27.6293 15.0206C27.5314 15.1511 27.4724 15.3293 27.438 15.5353L27.6205 15.5657ZM28.0546 14.9869V15.1718C28.1087 15.1718 28.1331 15.1812 28.1409 15.1854C28.144 15.1871 28.144 15.1877 28.1431 15.1867C28.1423 15.1857 28.1431 15.1861 28.1444 15.1901L28.3199 15.1316L28.4953 15.0731C28.4646 14.981 28.4037 14.9074 28.318 14.8607C28.2373 14.8167 28.1452 14.8019 28.0546 14.8019V14.9869ZM28.3199 15.1316L28.1444 15.1901C28.1854 15.3129 28.2548 15.4292 28.3466 15.5394L28.4887 15.421L28.6308 15.3026C28.5618 15.2198 28.5187 15.1432 28.4953 15.0731L28.3199 15.1316ZM28.4887 15.421L28.3579 15.5518C28.4397 15.6335 28.5508 15.6811 28.6686 15.7093C28.7882 15.738 28.9306 15.7506 29.0917 15.7506V15.5657V15.3808C28.9472 15.3808 28.8363 15.3692 28.755 15.3497C28.6718 15.3297 28.6342 15.3049 28.6195 15.2902L28.4887 15.421ZM29.0917 15.5657V15.7506H33.9152V15.5657V15.3808H29.0917V15.5657ZM33.9152 15.5657V15.7506C34.0132 15.7506 34.0523 15.7724 34.0654 15.7838C34.0735 15.7908 34.092 15.8107 34.092 15.8792H34.277H34.4619C34.4619 15.7388 34.4201 15.6018 34.3076 15.5043C34.2002 15.4112 34.0583 15.3808 33.9152 15.3808V15.5657ZM34.277 15.8792H34.092C34.092 15.9016 34.0822 15.9517 34.0392 16.0377L34.2046 16.1204L34.37 16.2031C34.4235 16.0962 34.4619 15.9854 34.4619 15.8792H34.277ZM34.2046 16.1204L34.0292 16.0619C34.0022 16.1429 33.9519 16.2523 33.8741 16.3923L34.0358 16.4822L34.1974 16.572C34.2804 16.4227 34.3427 16.2908 34.3801 16.1789L34.2046 16.1204ZM34.0358 16.4822L33.8719 16.3964L28.4937 26.6705L28.6575 26.7563L28.8214 26.8421L34.1996 16.5679L34.0358 16.4822ZM28.6575 26.7563L28.4921 26.6736C28.4151 26.8277 28.3807 26.993 28.4338 27.1524L28.6093 27.094L28.7847 27.0355C28.7736 27.0019 28.7714 26.9421 28.8229 26.839L28.6575 26.7563ZM28.6093 27.094L28.4439 27.1767C28.5403 27.3696 28.7481 27.4236 28.9469 27.4236V27.2387V27.0537C28.8733 27.0537 28.8281 27.0434 28.8027 27.0325C28.7809 27.0231 28.7766 27.0151 28.7747 27.0112L28.6093 27.094ZM28.9469 27.2387V27.4236H30.0322V27.2387V27.0537H28.9469V27.2387ZM30.0322 27.2387V27.4236C30.9862 27.4236 31.702 27.2964 32.1366 27.0067L32.034 26.8528L31.9314 26.6989C31.5943 26.9237 30.9756 27.0537 30.0322 27.0537V27.2387ZM32.034 26.8528L32.1409 27.0037C32.5642 26.7038 32.8961 26.2362 33.146 25.6199L32.9746 25.5504L32.8032 25.4809C32.5707 26.0545 32.2756 26.455 31.9271 26.7019L32.034 26.8528ZM32.9746 25.5504L33.1457 25.6207L33.8692 23.8601L33.6981 23.7898L33.5271 23.7195L32.8035 25.4801L32.9746 25.5504ZM33.6981 23.7898L33.866 23.8673C33.952 23.6811 34.0248 23.6612 34.0599 23.6612V23.4763V23.2914C33.8056 23.2914 33.6372 23.4805 33.5302 23.7123L33.6981 23.7898ZM34.0599 23.4763V23.6612C34.0929 23.6612 34.1084 23.6667 34.1136 23.6692C34.1165 23.6705 34.1165 23.6707 34.1176 23.6726C34.1239 23.6834 34.1406 23.7314 34.119 23.8542L34.3011 23.8863L34.4832 23.9184C34.5098 23.7679 34.5104 23.6109 34.4364 23.485C34.3524 23.3424 34.2062 23.2914 34.0599 23.2914V23.4763ZM34.3011 23.8863L34.119 23.8541L33.4919 27.3994L33.674 27.4316L33.8561 27.4638L34.4832 23.9185L34.3011 23.8863ZM33.674 27.4316L33.4916 27.4012C33.4723 27.5169 33.433 27.5806 33.3909 27.6168C33.349 27.6527 33.2817 27.6808 33.1675 27.6808V27.8657V28.0507C33.3428 28.0507 33.5046 28.0064 33.6316 27.8976C33.7582 27.7891 33.8275 27.6357 33.8564 27.462L33.674 27.4316ZM33.1675 27.8657V27.6808H26.8728V27.8657V28.0507H33.1675V27.8657ZM34.6276 27.311L34.6014 27.1278L34.5945 27.1291L34.6276 27.311ZM34.9653 27.2628L34.9914 27.4459V27.4459L34.9653 27.2628ZM35.7129 26.9734L35.8366 27.1108V27.1108L35.7129 26.9734ZM35.8094 11.8274L35.6589 11.9349L35.6636 11.9416L35.669 11.9478L35.8094 11.8274ZM35.3511 11.6345L35.3272 11.8182L35.338 11.819L35.3511 11.6345ZM34.7964 11.5621L34.7633 11.7443L34.7725 11.7455L34.7964 11.5621ZM34.7964 10.9833L34.8295 11.1654L34.8352 11.1642L34.7964 10.9833ZM35.9541 10.6457L35.8854 10.474V10.474L35.9541 10.6457ZM36.75 10.2598L36.8469 10.4173L36.848 10.4166L36.75 10.2598ZM37.7388 26.9734L37.5849 27.076L37.5916 27.086L37.5996 27.0951L37.7388 26.9734ZM38.4141 27.2387L38.3879 27.4218L38.3902 27.422L38.4141 27.2387ZM38.9688 27.311L39.0019 27.1288L38.9927 27.1276L38.9688 27.311ZM34.6517 27.8657V27.6808C34.58 27.6808 34.5606 27.664 34.5596 27.6631C34.5591 27.6626 34.5569 27.6608 34.5542 27.6533C34.5511 27.6448 34.5472 27.6283 34.5472 27.6004H34.3623H34.1774C34.1774 27.7217 34.2112 27.8454 34.3097 27.9357C34.4052 28.0232 34.5305 28.0507 34.6517 28.0507V27.8657ZM34.3623 27.6004H34.5472C34.5472 27.5552 34.5588 27.5392 34.565 27.5325C34.5733 27.5233 34.5974 27.5045 34.6607 27.493L34.6276 27.311L34.5945 27.1291C34.481 27.1497 34.3724 27.1952 34.2923 27.2825C34.2101 27.3722 34.1774 27.4849 34.1774 27.6004H34.3623ZM34.6276 27.311L34.6538 27.4941L34.9914 27.4459L34.9653 27.2628L34.9391 27.0797L34.6015 27.1279L34.6276 27.311ZM34.9653 27.2628L34.9914 27.4459C35.3461 27.3952 35.637 27.2905 35.8366 27.1108L35.7129 26.9734L35.5892 26.8359C35.4672 26.9457 35.2597 27.0339 34.9391 27.0797L34.9653 27.2628ZM35.7129 26.9734L35.8366 27.1108C36.0537 26.9154 36.139 26.6108 36.139 26.2498H35.9541H35.7691C35.7691 26.5641 35.6937 26.7419 35.5892 26.8359L35.7129 26.9734ZM35.9541 26.2498H36.139V12.4304H35.9541H35.7691V26.2498H35.9541ZM35.9541 12.4304H36.139C36.139 12.133 36.092 11.873 35.9498 11.7071L35.8094 11.8274L35.669 11.9478C35.7197 12.007 35.7691 12.149 35.7691 12.4304H35.9541ZM35.8094 11.8274L35.9599 11.72C35.8318 11.5407 35.6102 11.4676 35.3643 11.45L35.3511 11.6345L35.338 11.819C35.5422 11.8336 35.6262 11.8891 35.6589 11.9349L35.8094 11.8274ZM35.3511 11.6345L35.3751 11.4511L34.8204 11.3788L34.7964 11.5621L34.7725 11.7455L35.3272 11.8179L35.3511 11.6345ZM34.7964 11.5621L34.8295 11.3802C34.7662 11.3687 34.7422 11.3498 34.7338 11.3407C34.7276 11.334 34.7161 11.3179 34.7161 11.2727H34.5311H34.3462C34.3462 11.3883 34.3789 11.5009 34.4611 11.5906C34.5412 11.678 34.6498 11.7235 34.7634 11.7441L34.7964 11.5621ZM34.5311 11.2727H34.7161C34.7161 11.2275 34.7276 11.2115 34.7338 11.2048C34.7422 11.1956 34.7662 11.1768 34.8295 11.1653L34.7964 10.9833L34.7634 10.8014C34.6498 10.822 34.5412 10.8675 34.4611 10.9548C34.3789 11.0445 34.3462 11.1572 34.3462 11.2727H34.5311ZM34.7964 10.9833L34.8352 11.1642C35.2925 11.0662 35.6889 10.9509 36.0228 10.8174L35.9541 10.6457L35.8854 10.474C35.5761 10.5977 35.2008 10.7075 34.7577 10.8025L34.7964 10.9833ZM35.9541 10.6457L36.0228 10.8174C36.3505 10.6863 36.6261 10.5532 36.8469 10.4173L36.75 10.2598L36.653 10.1023C36.4558 10.2236 36.2008 10.3478 35.8854 10.474L35.9541 10.6457ZM36.75 10.2598L36.848 10.4166C36.9715 10.3394 37.0747 10.2846 37.1587 10.2496C37.245 10.2137 37.2994 10.2036 37.3288 10.2036V10.0186V9.83368C37.2295 9.83368 37.1231 9.86376 37.0165 9.9082C36.9076 9.95359 36.7857 10.0194 36.652 10.103L36.75 10.2598ZM37.3288 10.0186V10.2036C37.3506 10.2036 37.3607 10.2075 37.3642 10.2091C37.3668 10.2104 37.3703 10.2125 37.3754 10.2199C37.3887 10.2392 37.4092 10.2913 37.4092 10.4045H37.5941H37.779C37.779 10.2604 37.7553 10.1196 37.6802 10.0103C37.5964 9.88852 37.4687 9.83368 37.3288 9.83368V10.0186ZM37.5941 10.4045H37.4092V26.2498H37.5941H37.779V10.4045H37.5941ZM37.5941 26.2498H37.4092C37.4092 26.5952 37.4566 26.8835 37.5849 27.076L37.7388 26.9734L37.8927 26.8708C37.828 26.7738 37.779 26.5798 37.779 26.2498H37.5941ZM37.7388 26.9734L37.5996 27.0951C37.759 27.2773 38.0436 27.3725 38.3879 27.4217L38.4141 27.2387L38.4402 27.0556C38.1093 27.0083 37.9437 26.9267 37.878 26.8516L37.7388 26.9734ZM38.4141 27.2387L38.3902 27.422L38.9449 27.4944L38.9688 27.311L38.9927 27.1276L38.438 27.0553L38.4141 27.2387ZM38.9688 27.311L38.9357 27.493C38.999 27.5045 39.0231 27.5233 39.0314 27.5325C39.0376 27.5392 39.0492 27.5552 39.0492 27.6004H39.2341H39.419C39.419 27.4849 39.3863 27.3722 39.3041 27.2825C39.224 27.1952 39.1154 27.1497 39.0019 27.1291L38.9688 27.311ZM39.2341 27.6004H39.0492C39.0492 27.6283 39.0453 27.6448 39.0422 27.6533C39.0395 27.6608 39.0373 27.6626 39.0368 27.6631C39.0358 27.664 39.0164 27.6808 38.9447 27.6808V27.8657V28.0507C39.0659 28.0507 39.1912 28.0232 39.2867 27.9357C39.3852 27.8454 39.419 27.7217 39.419 27.6004H39.2341ZM38.9447 27.8657V27.6808H34.6517V27.8657V28.0507H38.9447V27.8657ZM39.7626 32.3516L39.9041 32.2325L39.9008 32.2288L39.7626 32.3516ZM39.642 30.5669L39.5008 30.4474V30.4474L39.642 30.5669ZM40.9203 30.4222L41.051 30.2914V30.2914L40.9203 30.4222ZM41.3061 31.194L41.1362 31.2668V31.2668L41.3061 31.194ZM42.0779 30.9769L41.9193 30.8817L41.9167 30.8862L42.0779 30.9769ZM42.6809 29.4093L42.5054 29.3508L42.5047 29.3529L42.6809 29.4093ZM42.9703 28.1551L42.7868 28.1301L42.7861 28.1384L42.9703 28.1551ZM42.9461 27.0216L42.7624 27.0437L42.7635 27.0508L42.9461 27.0216ZM42.5844 25.5504L42.4079 25.6059L42.4089 25.6089L42.5844 25.5504ZM39.9556 17.1816L39.778 17.2334L39.7791 17.237L39.9556 17.1816ZM39.6179 16.4339L39.4775 16.5543L39.4821 16.5597L39.4871 16.5647L39.6179 16.4339ZM39.1355 16.1927L39.1743 16.0119L39.1718 16.0114L39.1355 16.1927ZM38.7738 16.1204L38.7322 16.3007L38.7375 16.3017L38.7738 16.1204ZM42.8014 16.1204L42.8244 16.304L42.8296 16.3032L42.8014 16.1204ZM42.4156 16.1686L42.4385 16.3521V16.3521L42.4156 16.1686ZM41.6679 16.458L41.5219 16.3445L41.52 16.3471L41.6679 16.458ZM41.692 17.1816L41.8692 17.1284L41.8683 17.1255L41.692 17.1816ZM43.8144 24.2481L43.9915 24.1949L43.9915 24.1949L43.8144 24.2481ZM44.2726 24.2481L44.0959 24.1935L44.0955 24.1949L44.2726 24.2481ZM46.3226 17.6157L46.4993 17.6703L46.4999 17.6682L46.3226 17.6157ZM46.4191 16.651L46.2383 16.6897L46.24 16.6976L46.2423 16.7054L46.4191 16.651ZM45.7438 16.2169L45.7092 16.3986L45.7146 16.3995L45.7438 16.2169ZM45.2373 16.1204L45.1957 16.3007L45.2027 16.3021L45.2373 16.1204ZM48.3726 16.1686L48.4311 16.3441V16.3441L48.3726 16.1686ZM48.1556 16.241L48.0971 16.0655V16.0655L48.1556 16.241ZM47.5526 16.6751L47.406 16.5623V16.5623L47.5526 16.6751ZM47.0462 17.7604L46.8712 17.7003L46.87 17.704L47.0462 17.7604ZM43.4526 28.9751L43.2765 28.9187L43.2762 28.9197L43.4526 28.9751ZM42.4879 31.4834L42.3244 31.3968L42.3225 31.4007L42.4879 31.4834ZM41.692 32.5446L41.5939 32.3876L41.5873 32.3922L41.692 32.5446ZM40.7997 32.8099V32.6249C40.4147 32.6249 40.1229 32.4923 39.9041 32.2325L39.7626 32.3516L39.6212 32.4707C39.9169 32.8219 40.3164 32.9948 40.7997 32.9948V32.8099ZM39.7626 32.3516L39.9008 32.2288C39.6736 31.9731 39.5617 31.6791 39.5617 31.3387H39.3767H39.1918C39.1918 31.77 39.3372 32.1513 39.6244 32.4745L39.7626 32.3516ZM39.3767 31.3387H39.5617C39.5617 31.0715 39.6379 30.8581 39.7832 30.6864L39.642 30.5669L39.5008 30.4474C39.2924 30.6938 39.1918 30.9948 39.1918 31.3387H39.3767ZM39.642 30.5669L39.7832 30.6864C39.9206 30.524 40.1074 30.4383 40.3656 30.4383V30.2534V30.0684C40.0127 30.0684 39.7172 30.1918 39.5008 30.4474L39.642 30.5669ZM40.3656 30.2534V30.4383C40.6027 30.4383 40.7278 30.4913 40.7895 30.553L40.9203 30.4222L41.051 30.2914C40.8876 30.128 40.6429 30.0684 40.3656 30.0684V30.2534ZM40.9203 30.4222L40.7895 30.553C40.8826 30.6461 40.9472 30.7503 40.986 30.8666L41.1614 30.8081L41.3369 30.7496C41.2792 30.5765 41.183 30.4234 41.051 30.2914L40.9203 30.4222ZM41.1614 30.8081L40.986 30.8666C41.0355 31.015 41.0855 31.1486 41.1362 31.2668L41.3061 31.194L41.4761 31.1211C41.4303 31.0143 41.3839 30.8906 41.3369 30.7496L41.1614 30.8081ZM41.3061 31.194L41.1362 31.2668C41.1743 31.3558 41.2357 31.4303 41.3215 31.4803C41.4052 31.5292 41.4999 31.5477 41.5956 31.5477V31.3628V31.1779C41.5465 31.1779 41.5206 31.1683 41.5079 31.1608C41.4972 31.1546 41.4862 31.1446 41.4761 31.1211L41.3061 31.194ZM41.5956 31.3628V31.5477C41.8755 31.5477 42.0845 31.3425 42.2391 31.0676L42.0779 30.9769L41.9167 30.8862C41.7819 31.1259 41.6693 31.1779 41.5956 31.1779V31.3628ZM42.0779 30.9769L42.2365 31.0721C42.3941 30.8094 42.6009 30.266 42.857 29.4656L42.6809 29.4093L42.5047 29.3529C42.2463 30.1604 42.0512 30.662 41.9193 30.8818L42.0779 30.9769ZM42.6809 29.4093L42.8563 29.4677C43.0198 28.9771 43.1206 28.5444 43.1544 28.1719L42.9703 28.1551L42.7861 28.1384C42.7556 28.4733 42.6634 28.8767 42.5054 29.3508L42.6809 29.4093ZM42.9703 28.1551L43.1535 28.1801C43.2045 27.8061 43.1955 27.4098 43.1288 26.9924L42.9461 27.0216L42.7635 27.0508C42.8254 27.4373 42.8325 27.7967 42.787 28.1301L42.9703 28.1551ZM42.9461 27.0216L43.1298 26.9996C43.0795 26.5807 42.9549 26.0773 42.7598 25.4919L42.5844 25.5504L42.4089 25.6089C42.5997 26.1812 42.7163 26.6586 42.7625 27.0436L42.9461 27.0216ZM42.5844 25.5504L42.7608 25.495L40.132 17.1262L39.9556 17.1816L39.7791 17.237L42.4079 25.6058L42.5844 25.5504ZM39.9556 17.1816L40.1331 17.1298C40.0754 16.932 40.0163 16.7644 39.9553 16.6291C39.8954 16.4966 39.8281 16.3826 39.7487 16.3032L39.6179 16.4339L39.4871 16.5647C39.5202 16.5978 39.5655 16.6646 39.6182 16.7814C39.6697 16.8954 39.7231 17.0453 39.778 17.2334L39.9556 17.1816ZM39.6179 16.4339L39.7583 16.3136C39.6245 16.1574 39.4184 16.0642 39.1743 16.0119L39.1355 16.1927L39.0968 16.3736C39.3029 16.4177 39.4184 16.4853 39.4775 16.5543L39.6179 16.4339ZM39.1355 16.1927L39.1718 16.0114L38.8101 15.9391L38.7738 16.1204L38.7375 16.3017L39.0993 16.3741L39.1355 16.1927ZM38.7738 16.1204L38.8154 15.9402C38.7302 15.9206 38.6885 15.8941 38.6694 15.8751C38.6551 15.8607 38.6452 15.843 38.6452 15.8069H38.4603H38.2753C38.2753 15.9316 38.3177 16.0464 38.4079 16.1366C38.4933 16.2221 38.6083 16.272 38.7322 16.3006L38.7738 16.1204ZM38.4603 15.8069H38.6452C38.6452 15.7882 38.6484 15.7807 38.6489 15.7796C38.649 15.7794 38.6489 15.7788 38.6522 15.7765C38.6629 15.7688 38.7018 15.7506 38.7979 15.7506V15.5657V15.3808C38.6689 15.3808 38.539 15.4028 38.4372 15.4755C38.3239 15.5564 38.2753 15.6779 38.2753 15.8069H38.4603ZM38.7979 15.5657V15.7506H42.7773V15.5657V15.3808H38.7979V15.5657ZM42.7773 15.5657V15.7506C42.8734 15.7506 42.9123 15.7688 42.9231 15.7765C42.9263 15.7788 42.9262 15.7794 42.9263 15.7796C42.9268 15.7807 42.93 15.7882 42.93 15.8069H43.115H43.2999C43.2999 15.6779 43.2513 15.5564 43.1381 15.4755C43.0363 15.4028 42.9063 15.3808 42.7773 15.3808V15.5657ZM43.115 15.8069H42.93C42.93 15.8566 42.9167 15.8762 42.9058 15.8871C42.8911 15.9019 42.8551 15.925 42.7733 15.9376L42.8014 16.1204L42.8296 16.3032C42.9568 16.2836 43.0776 16.2384 43.1674 16.1487C43.261 16.055 43.2999 15.934 43.2999 15.8069H43.115ZM42.8014 16.1204L42.7785 15.9369L42.3926 15.9851L42.4156 16.1686L42.4385 16.3521L42.8244 16.3039L42.8014 16.1204ZM42.4156 16.1686L42.3926 15.9851C42.1908 16.0103 42.016 16.0491 41.8725 16.1047C41.73 16.1598 41.6061 16.2363 41.5219 16.3445L41.6679 16.458L41.8139 16.5716C41.8422 16.5351 41.8992 16.491 42.006 16.4496C42.1117 16.4087 42.2544 16.3751 42.4385 16.3521L42.4156 16.1686ZM41.6679 16.458L41.52 16.3471C41.4365 16.4583 41.412 16.5991 41.4168 16.7416C41.4216 16.8856 41.4568 17.0523 41.5158 17.2376L41.692 17.1816L41.8683 17.1255C41.8147 16.9571 41.7897 16.8264 41.7864 16.7292C41.7831 16.6305 41.8028 16.5864 41.8159 16.569L41.6679 16.458ZM41.692 17.1816L41.5149 17.2348L43.6373 24.3013L43.8144 24.2481L43.9915 24.1949L41.8691 17.1284L41.692 17.1816ZM43.8144 24.2481L43.6372 24.3012C43.6653 24.3948 43.7056 24.484 43.7674 24.5527C43.8339 24.6266 43.9241 24.6742 44.0314 24.6742V24.4892V24.3043C44.0339 24.3043 44.0386 24.305 44.0431 24.3072C44.0472 24.3091 44.0466 24.31 44.0423 24.3052C44.0317 24.2935 44.0117 24.2621 43.9915 24.1949L43.8144 24.2481ZM44.0314 24.4892V24.6742C44.1373 24.6742 44.2324 24.6342 44.3069 24.5597C44.3766 24.49 44.4207 24.398 44.4498 24.3012L44.2726 24.2481L44.0955 24.1949C44.0763 24.2589 44.0561 24.2875 44.0454 24.2982C44.043 24.3006 44.0413 24.3019 44.0403 24.3025C44.0394 24.3032 44.0389 24.3034 44.0387 24.3035C44.0385 24.3035 44.0381 24.3037 44.0372 24.3039C44.0363 24.304 44.0345 24.3043 44.0314 24.3043V24.4892ZM44.2726 24.2481L44.4493 24.3027L46.4993 17.6703L46.3226 17.6157L46.1459 17.5611L44.0959 24.1935L44.2726 24.2481ZM46.3226 17.6157L46.4999 17.6682C46.6299 17.2295 46.6774 16.8617 46.5959 16.5966L46.4191 16.651L46.2423 16.7054C46.2894 16.8583 46.2726 17.1336 46.1453 17.5632L46.3226 17.6157ZM46.4191 16.651L46.5999 16.6122C46.5256 16.2654 46.1877 16.1006 45.773 16.0343L45.7438 16.2169L45.7146 16.3995C46.1038 16.4618 46.2161 16.5864 46.2383 16.6897L46.4191 16.651ZM45.7438 16.2169L45.7784 16.0352L45.2719 15.9387L45.2373 16.1204L45.2027 16.3021L45.7092 16.3985L45.7438 16.2169ZM45.2373 16.1204L45.2789 15.9402C45.1938 15.9206 45.152 15.8941 45.133 15.8751C45.1186 15.8607 45.1087 15.843 45.1087 15.8069H44.9238H44.7389C44.7389 15.9316 44.7813 16.0464 44.8714 16.1366C44.9569 16.2221 45.0719 16.272 45.1957 16.3006L45.2373 16.1204ZM44.9238 15.8069H45.1087C45.1087 15.7882 45.112 15.7807 45.1125 15.7796C45.1125 15.7794 45.1124 15.7788 45.1157 15.7765C45.1265 15.7688 45.1653 15.7506 45.2614 15.7506V15.5657V15.3808C45.1325 15.3808 45.0025 15.4028 44.9007 15.4755C44.7875 15.5564 44.7389 15.6779 44.7389 15.8069H44.9238ZM45.2614 15.5657V15.7506H48.3244V15.5657V15.3808H45.2614V15.5657ZM48.3244 15.5657V15.7506C48.4178 15.7506 48.4537 15.7698 48.4634 15.7774C48.4668 15.7801 48.4687 15.7825 48.4707 15.7871C48.4731 15.7929 48.4771 15.8061 48.4771 15.831H48.662H48.847C48.847 15.7006 48.8032 15.5741 48.6919 15.4866C48.589 15.4058 48.4561 15.3808 48.3244 15.3808V15.5657ZM48.662 15.831H48.4771C48.4771 15.8713 48.4663 15.8958 48.4493 15.9156C48.4295 15.9387 48.3902 15.9678 48.3142 15.9932L48.3726 16.1686L48.4311 16.3441C48.548 16.3051 48.6534 16.2458 48.7301 16.1563C48.8096 16.0636 48.847 15.9515 48.847 15.831H48.662ZM48.3726 16.1686L48.3142 15.9932L48.0971 16.0655L48.1556 16.241L48.2141 16.4164L48.4311 16.3441L48.3726 16.1686ZM48.1556 16.241L48.0971 16.0655C47.8196 16.158 47.5884 16.3253 47.406 16.5623L47.5526 16.6751L47.6992 16.7879C47.8384 16.6069 48.0092 16.4847 48.2141 16.4164L48.1556 16.241ZM47.5526 16.6751L47.406 16.5623C47.2259 16.7965 47.0492 17.1825 46.8713 17.7003L47.0462 17.7604L47.2211 17.8205C47.3968 17.3092 47.5578 16.9717 47.6992 16.7879L47.5526 16.6751ZM47.0462 17.7604L46.87 17.704L43.2765 28.9187L43.4526 28.9751L43.6287 29.0316L47.2223 17.8168L47.0462 17.7604ZM43.4526 28.9751L43.2762 28.9197C42.9234 30.0422 42.6058 30.8654 42.3245 31.3969L42.4879 31.4834L42.6514 31.5699C42.9488 31.008 43.2744 30.159 43.629 29.0306L43.4526 28.9751ZM42.4879 31.4834L42.3225 31.4007C42.0518 31.9421 41.8054 32.2556 41.594 32.3877L41.692 32.5446L41.79 32.7014C42.0932 32.5119 42.3774 32.118 42.6533 31.5661L42.4879 31.4834ZM41.692 32.5446L41.5873 32.3922C41.3634 32.5461 41.1031 32.6249 40.7997 32.6249V32.8099V32.9948C41.1715 32.9948 41.5062 32.8968 41.7968 32.697L41.692 32.5446Z" fill="black" mask="url(#path-1-outside-1_5070_65089)"/>
</svg>
