<svg width="27" height="26" viewBox="0 0 27 26" fill="none" xmlns="http://www.w3.org/2000/svg">
<path fill-rule="evenodd" clip-rule="evenodd" d="M13.4276 0C13.0496 0.000167021 12.6794 0.107723 12.3602 0.310142C12.0409 0.512561 11.7857 0.801513 11.6244 1.14335L8.578 7.29171L8.55498 7.33584L8.51085 7.34351L1.80233 8.33722C1.42187 8.37416 1.06003 8.51961 0.759859 8.75627C0.459688 8.99294 0.233822 9.31085 0.109132 9.67218C-0.015557 10.0335 -0.0338206 10.4231 0.0565147 10.7945C0.14685 11.1659 0.341981 11.5036 0.618692 11.7673L5.52971 16.5037L5.54122 16.5133C5.54816 16.5198 5.55338 16.528 5.55639 16.537C5.5594 16.5461 5.56012 16.5557 5.55849 16.5651V16.5728L4.38828 23.4175C4.32405 23.7886 4.36515 24.1722 4.50691 24.5211C4.64868 24.8701 4.88543 25.1723 5.19028 25.3934C5.49514 25.6146 5.8559 25.7458 6.23159 25.7723C6.60729 25.7987 6.98287 25.7193 7.31571 25.5431L13.3586 22.349C13.403 22.3318 13.4522 22.3318 13.4967 22.349L19.5395 25.5411C19.8722 25.7186 20.248 25.7989 20.6242 25.7732C21.0003 25.7474 21.3616 25.6164 21.667 25.3953C21.9723 25.1741 22.2094 24.8716 22.3511 24.5223C22.4929 24.173 22.5337 23.7908 22.4689 23.4194L21.2987 16.5709V16.5651C21.2961 16.5561 21.2961 16.5472 21.2987 16.5382L21.314 16.5133L21.3255 16.5037L26.2346 11.7653C26.5108 11.5015 26.7054 11.164 26.7953 10.7929C26.8853 10.4218 26.8669 10.0326 26.7423 9.67168C26.6176 9.31071 26.392 8.9931 26.0922 8.75656C25.7925 8.52001 25.4311 8.37447 25.051 8.33722L18.3444 7.34351L18.3003 7.33584L18.2773 7.29171L15.2309 1.14335C15.0695 0.801513 14.8143 0.512561 14.4951 0.310142C14.1758 0.107723 13.8056 0.000167021 13.4276 0Z" fill="#FFCA1B"/>
</svg>
