<svg width="26" height="26" viewBox="0 0 26 26" fill="none" xmlns="http://www.w3.org/2000/svg">
<path d="M21.0896 9.41849L21.3561 8.80532C21.8246 7.72061 22.6827 6.8509 23.7611 6.36782L24.5833 6.00057C24.6831 5.95469 24.7676 5.88116 24.8268 5.78871C24.886 5.69625 24.9175 5.58875 24.9175 5.47895C24.9175 5.36915 24.886 5.26165 24.8268 5.16919C24.7676 5.07674 24.6831 5.00321 24.5833 4.95732L23.8066 4.61174C22.7011 4.1149 21.8283 3.21303 21.368 2.09191L21.0928 1.42999C21.0526 1.32746 20.9823 1.23943 20.8913 1.17738C20.8003 1.11534 20.6927 1.08215 20.5826 1.08215C20.4724 1.08215 20.3648 1.11534 20.2738 1.17738C20.1828 1.23943 20.1126 1.32746 20.0723 1.42999L19.7982 2.09082C19.3384 3.21216 18.466 4.11442 17.3607 4.61174L16.5829 4.95841C16.4834 5.00443 16.3992 5.07795 16.3402 5.17028C16.2812 5.26261 16.2498 5.36991 16.2498 5.47949C16.2498 5.58907 16.2812 5.69637 16.3402 5.7887C16.3992 5.88104 16.4834 5.95456 16.5829 6.00057L17.4062 6.36674C18.4843 6.8503 19.3421 7.72039 19.8101 8.80532L20.0766 9.41849C20.2716 9.86699 20.8935 9.86699 21.0896 9.41849ZM2.22656 13H4.40948C4.67196 14.8035 5.575 16.4522 6.9534 17.6445C8.33179 18.8368 10.0934 19.493 11.9159 19.493C13.7384 19.493 15.5 18.8368 16.8784 17.6445C18.2568 16.4522 19.1598 14.8035 19.4223 13H21.6063C21.36 15.1978 20.3741 17.2466 18.8105 18.8105C17.2468 20.3744 15.1981 21.3605 13.0003 21.6071V26H10.8336V21.6071C8.63571 21.3607 6.58674 20.3747 5.02284 18.8108C3.45893 17.2469 2.47293 15.1979 2.22656 13ZM11.917 2.16666C10.4804 2.16666 9.10264 2.73734 8.08682 3.75316C7.07099 4.76898 6.50031 6.14674 6.50031 7.58332V11.9167C6.50031 13.3532 7.07099 14.731 8.08682 15.7468C9.10264 16.7626 10.4804 17.3333 11.917 17.3333C13.3536 17.3333 14.7313 16.7626 15.7471 15.7468C16.763 14.731 17.3336 13.3532 17.3336 11.9167V8.66666H15.167V11.9167C15.167 12.7786 14.8246 13.6053 14.2151 14.2148C13.6056 14.8242 12.7789 15.1667 11.917 15.1667C11.055 15.1667 10.2284 14.8242 9.61888 14.2148C9.00939 13.6053 8.66698 12.7786 8.66698 11.9167V7.58332C8.66677 7.00015 8.82348 6.42766 9.12068 5.92589C9.41787 5.42413 9.84461 5.01157 10.3561 4.7315C10.8676 4.45142 11.4451 4.31414 12.0279 4.33405C12.6108 4.35396 13.1775 4.53033 13.6687 4.84466L14.8387 3.02141C13.9665 2.46305 12.9526 2.16641 11.917 2.16666Z" fill="white"/>
</svg>
